<?xml version="1.0" standalone="no"?><!DOCTYPE svg PUBLIC "-//W3C//DTD SVG 1.1//EN" "http://www.w3.org/Graphics/SVG/1.1/DTD/svg11.dtd" ><svg xmlns="http://www.w3.org/2000/svg"><metadata></metadata><defs><font id="JuanPablodelPeral: Acme: 2011" horiz-adv-x="975"><font-face font-family="Acme" font-weight="400" font-stretch="normal" units-per-em="1000" panose-1="2 0 7 6 5 0 0 2 0 4" ascent="959" descent="-307" x-height="4" bbox="-79 -307 948 959" underline-thickness="33" underline-position="-106" unicode-range="U+0020-fb02" /><missing-glyph horiz-adv-x="154"  /><glyph glyph-name=".null" unicode="" d="" /><glyph glyph-name="nonmarkingreturn" unicode="" d="" /><glyph glyph-name="space" unicode=" " d="" /><glyph glyph-name="exclam" unicode="!" d="M40 65.5 q0 33.5 24 58 q24 24.5 56 24.5 q32 0 48.5 -17.5 q16.5 -17.5 16.5 -51.5 q0 -34 -23 -59.5 q-23 -25.5 -54.5 -25.5 q-31.5 0 -49.5 19 q-18 19 -18 52.5 ZM227 700 l-56 -443 l-95 -14 l0 432 l151 25 Z" /><glyph glyph-name="quotedbl" unicode="&quot;" d="M57 624 l109 10 q-22 -134 -63 -244 l-57 3 q11 126 11 231 ZM212 624 l109 10 q-22 -134 -63 -244 l-57 3 q11 126 11 231 Z" /><glyph glyph-name="numbersign" unicode="#" d="M28 301 l6 67 l83 0 l17 104 l75 7 l-18 -111 l77 0 l17 104 l74 7 l-18 -111 l84 0 l-6 -67 l-89 0 l-11 -74 l78 0 l-6 -68 l-83 0 l-17 -109 l-75 -7 l18 116 l-76 0 l-17 -109 l-75 -7 l18 116 l-84 0 l6 68 l89 0 l12 74 l-79 0 ZM180 301 l-11 -74 l76 0 l12 74 l-77 0 Z" /><glyph glyph-name="dollar" unicode="$" d="M33 351 q0 67 55.5 115.5 q55.5 48.5 131.5 48.5 l11 0 l28 115 l47 -6 l-27 -115 q43 -9 72 -23 l-51 -108 q-19 14 -46 26 l-25 -107 q55 -23 78 -43 q43 -36 43 -98.5 q0 -62.5 -55.5 -114.5 q-55.5 -52 -129.5 -52 l-9 0 l-29 -122 l-47 7 l29 123 q-29 8 -54.5 25 q-25.5 17 -36.5 30 l-11 12 l57 80 q28 -31 68 -50 l28 119 q-95 39 -116 86 q-11 23 -11 52 ZM174 422 q-20 0 -36.5 -13 q-16.5 -13 -16.5 -33.5 q0 -20.5 16 -34 q16 -13.5 47 -26.5 l25 104 q-15 3 -35 3 ZM262 137 q0 31 -57 58 l-27 -114 l12 0 q33 0 52.5 15.5 q19.5 15.5 19.5 40.5 Z" /><glyph glyph-name="percent" unicode="%" d="M231 695 q73 0 118.5 -56.5 q45.5 -56.5 45.5 -147.5 q0 -115 -54.5 -181.5 q-54.5 -66.5 -149.5 -66.5 q-72 0 -118 57 q-46 57 -46 156 q0 99 57.5 169 q57.5 70 146.5 70 ZM214.5 319 q42.5 0 58.5 30.5 q16 30.5 16 113 q0 82.5 -16.5 114 q-16.5 31.5 -60 31.5 q-43.5 0 -61.5 -29 q-18 -29 -18 -107 q0 -78 19.5 -115.5 q19.5 -37.5 62 -37.5 ZM784 449 q73 0 118.5 -56.5 q45.5 -56.5 45.5 -147.5 q0 -115 -54.5 -181.5 q-54.5 -66.5 -149.5 -66.5 q-72 0 -118 57 q-46 57 -46 156 q0 99 57.5 169 q57.5 70 146.5 70 ZM767.5 73 q42.5 0 58.5 30.5 q16 30.5 16 113 q0 82.5 -16.5 114 q-16.5 31.5 -60 31.5 q-43.5 0 -61.5 -29 q-18 -29 -18 -107 q0 -78 19.5 -115.5 q19.5 -37.5 62 -37.5 ZM306 -119 l-79 32 l421 845 l79 -32 l-421 -845 Z" /><glyph glyph-name="ampersand" unicode="&amp;" d="M467 326 q13 -81 13 -109.5 q0 -28.5 -3 -43.5 l113 -111 l-82 -73 q-34 37 -80 85 q-33 -39 -80 -62 q-47 -23 -98 -23 q-91 0 -151 49.5 q-60 49.5 -60 124.5 q0 101 118 170 q-80 83 -80 150.5 q0 67.5 60 117 q60 49.5 145 49.5 q52 0 96.5 -11 q44.5 -11 63.5 -21 l18 -11 l-62 -118 q-26 22 -64.5 39.5 q-38.5 17.5 -73 17.5 q-34.5 0 -54 -16 q-19.5 -16 -19.5 -41 q0 -35 24 -64 q24 -29 115 -109 l69 -64 q-5 52 -26 152 l13 13 l210 0 l-8 -91 l-117 0 ZM202 289 q-47 -45 -47 -91 q0 -46 32.5 -77 q32.5 -31 92.5 -31 q60 0 92 41 q-65 66 -122 117 q-24 18 -48 41 Z" /><glyph glyph-name="quotesingle" unicode="&#39;" d="M57 624 l109 10 q-22 -134 -63 -244 l-57 3 q11 126 11 231 Z" /><glyph glyph-name="parenleft" unicode="(" d="M253 -144 q-106 43 -146 136.5 q-40 93.5 -40 297 q0 203.5 40 301.5 q40 98 146 150 l30 -48 q-70 -45 -95.5 -127 q-25.5 -82 -25.5 -265.5 q0 -183.5 25 -268 q25 -84.5 96 -128.5 l-30 -48 Z" /><glyph glyph-name="parenright" unicode=")" d="M25 741 q106 -43 146 -136.5 q40 -93.5 40 -297 q0 -203.5 -40 -301.5 q-40 -98 -146 -150 l-30 48 q70 45 95.5 127 q25.5 82 25.5 265.5 q0 183.5 -25 268 q-25 84.5 -96 128.5 l30 48 Z" /><glyph glyph-name="asterisk" unicode="*" d="M11 537 l15 73 l99 -57 l5 96 l73 8 l-23 -113 l92 26 l30 -67 l-113 -13 l53 -79 l-55 -50 l-48 104 l-59 -75 l-63 36 l84 78 l-90 33 Z" /><glyph glyph-name="plus" unicode="+" d="M162 306 l0 147 l100 9 l0 -156 l146 0 l-8 -91 l-138 0 l0 -146 l-100 -9 l0 155 l-145 0 l8 91 l137 0 Z" /><glyph glyph-name="comma" unicode="," d="M165 67 q0 -85 -124 -180 l-41 30 q59 69 59 119 q0 31 -26 79 l98 39 q34 -43 34 -87 Z" /><glyph glyph-name="hyphen" unicode="-" d="M21 194 l-8 91 l236 42 l8 -91 l-236 -42 Z" /><glyph glyph-name="period" unicode="." d="M30 67 q0 32 23.5 56.5 q23.5 24.5 56.5 24.5 q65 0 65 -66 q0 -38 -23.5 -63 q-23.5 -25 -55 -25 q-31.5 0 -49 20.5 q-17.5 20.5 -17.5 52.5 Z" /><glyph glyph-name="slash" unicode="/" d="M99 -133 l-90 16 l217 875 l90 -16 l-217 -875 Z" /><glyph glyph-name="zero" unicode="0" d="M313 649 q103 0 165.5 -81.5 q62.5 -81.5 62.5 -215.5 q0 -169 -75.5 -266 q-75.5 -97 -207.5 -97 q-101 0 -164.5 82.5 q-63.5 82.5 -63.5 215.5 q0 159 79.5 260.5 q79.5 101.5 203.5 101.5 ZM290 87 q64 0 89.5 49 q25.5 49 25.5 174 q0 125 -26 175.5 q-26 50.5 -91 50.5 q-65 0 -93.5 -47.5 q-28.5 -47.5 -28.5 -165 q0 -117.5 30 -177 q30 -59.5 94 -59.5 Z" /><glyph glyph-name="one" unicode="1" d="M285 650 l-15 -390 l12 -260 l-140 0 l12 243 l-8 249 l-140 -1 l0 65 l279 94 Z" /><glyph glyph-name="two" unicode="2" d="M311 467 q0 56 -68 56 q-42 0 -92.5 -17.5 q-50.5 -17.5 -80.5 -35.5 l-29 -17 l27 143 q39 21 94 37.5 q55 16.5 97 16.5 q85 0 136.5 -43.5 q51.5 -43.5 51.5 -115.5 q0 -97 -102 -202 l-174 -180 l312 18 l-17 -133 l-208 9 l-236 -7 l16 105 l210 242 q63 71 63 124 Z" /><glyph glyph-name="three" unicode="3" d="M61 620 q84 30 167 30 q83 0 136 -42 q53 -42 53 -106 q0 -50 -26 -87.5 q-26 -37.5 -74 -56.5 q70 -26 101 -64.5 q31 -38.5 31 -97.5 q0 -90 -69.5 -148.5 q-69.5 -58.5 -176.5 -58.5 q-51 0 -99.5 13.5 q-48.5 13.5 -71.5 27.5 l-23 14 l42 121 q9 -8 24 -20 q15 -12 57.5 -32.5 q42.5 -20.5 85.5 -20.5 q43 0 75 23.5 q32 23.5 32 66.5 q0 43 -37.5 71 q-37.5 28 -103.5 28 l-86 0 l18 97 l55 0 q55 0 86 25 q31 25 31 64 q0 39 -26 60.5 q-26 21.5 -62.5 21.5 q-36.5 0 -75 -12.5 q-38.5 -12.5 -84.5 -37.5 l21 121 Z" /><glyph glyph-name="four" unicode="4" d="M10 248 l238 375 l165 20 l-14 -387 l96 4 l-10 -101 l-80 2 l6 -161 l-140 0 l10 163 l-279 -1 l8 86 ZM278 514 l-159 -257 l164 1 l-5 256 Z" /><glyph glyph-name="five" unicode="5" d="M457 214 q0 -93 -74.5 -159 q-74.5 -66 -181.5 -66 q-50 0 -96 12.5 q-46 12.5 -67 24.5 l-21 13 l42 117 q31 -24 77.5 -44 q46.5 -20 87 -20 q40.5 0 72.5 25.5 q32 25.5 32 62.5 q0 91 -122 111 l-133 22 l0 331 l172 -12 l203 11 l-22 -138 l-257 23 l0 -117 l109 -19 q84 -15 131.5 -63 q47.5 -48 47.5 -115 Z" /><glyph glyph-name="six" unicode="6" d="M176 357 q62 48 134 48 q72 0 120.5 -54 q48.5 -54 48.5 -143 q0 -89 -69 -154 q-69 -65 -165.5 -65 q-96.5 0 -154.5 64 q-58 64 -58 168 q0 104 59.5 205 q59.5 101 187.5 224 l139 -59 q-190 -123 -242 -234 ZM266 302 q-64 0 -115 -35 q-2 -22 -2 -34 q0 -64 31 -102.5 q31 -38.5 77.5 -38.5 q46.5 0 73.5 28 q27 28 27 73.5 q0 45.5 -26 77 q-26 31.5 -66 31.5 Z" /><glyph glyph-name="seven" unicode="7" d="M55 34 l251 494 l-301 -23 l22 138 l211 -11 l200 12 l-15 -107 l-162 -335 l-64 -213 l-142 45 Z" /><glyph glyph-name="eight" unicode="8" d="M40 155 q0 53 37 91.5 q37 38.5 82 61.5 q-96 57 -96 143.5 q0 86.5 62 142.5 q62 56 147 56 q85 0 138.5 -41 q53.5 -41 53.5 -102 q0 -79 -94 -155 q60 -28 94.5 -65 q34.5 -37 34.5 -93 q0 -84 -71.5 -144.5 q-71.5 -60.5 -166 -60.5 q-94.5 0 -158 49 q-63.5 49 -63.5 117 ZM352 218.5 q-37 21.5 -79 38 q-42 16.5 -57 23.5 q-65 -43 -65 -87 q0 -44 35 -71 q35 -27 87.5 -27 q52.5 0 84 19.5 q31.5 19.5 31.5 51 q0 31.5 -37 53 ZM173 483.5 q0 -26.5 16 -40.5 q16 -14 25 -20.5 q9 -6.5 30 -16.5 q37 -17 66 -28 q46 58 46 92.5 q0 34.5 -26.5 55 q-26.5 20.5 -67 20.5 q-40.5 0 -65 -18 q-24.5 -18 -24.5 -44.5 Z" /><glyph glyph-name="nine" unicode="9" d="M323 282 q-60 -48 -133 -48 q-73 0 -121.5 54 q-48.5 54 -48.5 143 q0 89 69 154 q69 65 165.5 65 q96.5 0 154.5 -64 q58 -64 58 -168 q0 -104 -59.5 -205 q-59.5 -101 -187.5 -224 l-139 59 q189 123 242 234 ZM233 337 q65 0 115 35 q2 22 2 34 q0 64 -31 102.5 q-31 38.5 -77.5 38.5 q-46.5 0 -73.5 -28 q-27 -28 -27 -73.5 q0 -45.5 26 -77 q26 -31.5 66 -31.5 Z" /><glyph glyph-name="colon" unicode=":" d="M30 67 q0 32 23.5 56.5 q23.5 24.5 56.5 24.5 q65 0 65 -66 q0 -38 -23.5 -63 q-23.5 -25 -55 -25 q-31.5 0 -49 20.5 q-17.5 20.5 -17.5 52.5 ZM30 330 q0 32 23.5 56.5 q23.5 24.5 56.5 24.5 q65 0 65 -66 q0 -38 -23.5 -63 q-23.5 -25 -55 -25 q-31.5 0 -49 20.5 q-17.5 20.5 -17.5 52.5 Z" /><glyph glyph-name="semicolon" unicode=";" d="M30 330 q0 32 23.5 56.5 q23.5 24.5 56.5 24.5 q65 0 65 -66 q0 -38 -23.5 -63 q-23.5 -25 -55 -25 q-31.5 0 -49 20.5 q-17.5 20.5 -17.5 52.5 ZM165 67 q0 -85 -124 -180 l-41 30 q59 69 59 119 q0 31 -26 79 l98 39 q34 -43 34 -87 Z" /><glyph glyph-name="less" unicode="&lt;" d="M21 252 l247 223 l59 -67 l-164 -152 l172 -149 l-64 -71 l-250 216 Z" /><glyph glyph-name="equal" unicode="=" d="M17 299 l8 91 l383 0 l-8 -91 l-383 0 ZM17 129 l8 91 l383 0 l-8 -91 l-383 0 Z" /><glyph glyph-name="greater" unicode="&gt;" d="M374 259 l-247 -223 l-59 67 l164 152 l-172 149 l64 71 l250 -216 Z" /><glyph glyph-name="question" unicode="?" d="M78 65.5 q0 33.5 24 58 q24 24.5 56 24.5 q32 0 48.5 -17.5 q16.5 -17.5 16.5 -51.5 q0 -34 -23 -59.5 q-23 -25.5 -54.5 -25.5 q-31.5 0 -49.5 19 q-18 19 -18 52.5 ZM220 478 q0 105 -220 110 l50 112 q148 -13 226 -63 q78 -50 78 -133 q0 -115 -189 -257 l-77 69 q132 85 132 162 Z" /><glyph glyph-name="at" unicode="@" d="M357 100 q-59 0 -96.5 37.5 q-37.5 37.5 -37.5 101 q0 63.5 58 110 q58 46.5 141 46.5 l68 0 l0 18 q0 50 -26.5 73.5 q-26.5 23.5 -83.5 23.5 q-120 0 -189 -70.5 q-69 -70.5 -69 -189 q0 -118.5 78.5 -198.5 q78.5 -80 199.5 -80 q65 0 134.5 20 q69.5 20 105.5 40 l37 21 l16 -102 q-15 -9 -43 -22.5 q-28 -13.5 -110.5 -36 q-82.5 -22.5 -162.5 -22.5 q-156 0 -251.5 101 q-95.5 101 -95.5 266.5 q0 165.5 109 274 q109 108.5 278 108.5 q89 0 138 -46 q49 -46 49 -129 l0 -178 q0 -70 35 -125 l-106 -45 q-25 48 -37 86 q-55 -83 -139 -83 ZM399 202 q40 0 91 41 l0 67 q-53 12 -86 12 q-63 0 -63 -56 q0 -29 16 -46.5 q16 -17.5 42 -17.5 Z" /><glyph glyph-name="A" unicode="a" d="M484 -5 l-49 195 l-239 0 l-53 -190 l-128 10 l88 243 l134 430 l179 13 l129 -428 l83 -251 l-144 -22 ZM326 566 l-13 0 l-86 -270 l178 0 l-79 270 Z" /><glyph glyph-name="B" unicode="b" d="M297 690 q96 0 152 -43.5 q56 -43.5 56 -116.5 q0 -117 -96 -163 q130 -45 130 -166 q0 -91 -78 -151.5 q-78 -60.5 -196 -60.5 q-62 0 -185 11 l12 243 l-12 447 l217 0 ZM284 297 l-81 0 l-1 -37 l7 -163 q58 -5 89 -5 q53 0 82.5 26.5 q29.5 26.5 29.5 77.5 q0 51 -30 76 q-30 25 -96 25 ZM261 589 l-49 0 l-6 -195 l65 0 q51 0 78 27.5 q27 27.5 27 78.5 q0 89 -115 89 Z" /><glyph glyph-name="C" unicode="c" d="M293 -11 q-111 0 -187 93 q-76 93 -76 228 q0 165 91.5 278 q91.5 113 224.5 113 q52 0 96.5 -10.5 q44.5 -10.5 63.5 -21.5 l18 -11 l-68 -139 q-23 20 -65 37.5 q-42 17.5 -76 17.5 q-69 0 -110.5 -57 q-41.5 -57 -41.5 -162.5 q0 -105.5 43 -173 q43 -67.5 117 -67.5 q48 0 87 30 q39 30 55 80 l83 -48 q-33 -88 -101 -137.5 q-68 -49.5 -154 -49.5 Z" /><glyph glyph-name="D" unicode="d" d="M285 -11 q-71 0 -205 11 l12 243 l-12 447 l267 0 q135 0 211 -81 q76 -81 76 -225 q0 -182 -94 -288.5 q-94 -106.5 -255 -106.5 ZM311 582 q-66 0 -93 -1 l-10 -321 l7 -162 q84 -6 113 -6 q79 0 124.5 64 q45.5 64 45.5 186 q0 122 -44.5 181 q-44.5 59 -142.5 59 Z" /><glyph glyph-name="E" unicode="e" d="M80 0 l12 243 l-12 447 l375 0 l-11 -107 l-225 0 l-6 -177 l200 0 l-11 -106 l-193 0 l-1 -40 l7 -154 l242 0 l-11 -106 l-366 0 Z" /><glyph glyph-name="F" unicode="f" d="M431 583 l-213 0 l-6 -184 l191 0 l-11 -106 l-183 0 l-1 -33 l12 -260 l-140 0 l12 243 l-12 447 l362 0 l-11 -107 Z" /><glyph glyph-name="G" unicode="g" d="M321 -11 q-131 0 -211 88 q-80 88 -80 233 q0 165 100 278 q100 113 246 113 q58 0 107.5 -10.5 q49.5 -10.5 70.5 -21.5 l20 -11 l-58 -139 q-30 20 -81 37.5 q-51 17.5 -90 17.5 q-81 0 -130 -57 q-49 -57 -49 -151 q0 -127 46.5 -198 q46.5 -71 129.5 -71 q54 0 102 15 l0 155 l-129 0 l10 101 l240 0 l-9 -163 l7 -173 q-147 -43 -242 -43 Z" /><glyph glyph-name="H" unicode="h" d="M610 695 l-14 -435 l12 -260 l-140 0 l12 243 l-2 53 l-269 0 l-1 -36 l12 -260 l-140 0 l12 243 l-12 427 l142 25 l-10 -293 l263 0 l-7 268 l142 25 Z" /><glyph glyph-name="I" unicode="i" d="M222 695 l-14 -435 l12 -260 l-140 0 l12 243 l-12 427 l142 25 Z" /><glyph glyph-name="J" unicode="j" d="M82 -10 q-41 0 -82 9 l32 120 q33 -11 64 -11 q61 0 61 101 l-14 461 l142 25 l-14 -451 q0 -109 -53 -181.5 q-53 -72.5 -136 -72.5 Z" /><glyph glyph-name="K" unicode="k" d="M222 695 l-11 -326 l255 324 l102 -68 l-230 -267 l244 -289 l-128 -80 l-244 345 l-2 -74 l12 -260 l-140 0 l12 243 l-12 427 l142 25 Z" /><glyph glyph-name="L" unicode="l" d="M80 0 l12 243 l-12 427 l142 25 l-14 -435 l7 -162 l205 16 l-11 -114 l-329 0 Z" /><glyph glyph-name="M" unicode="m" d="M370 312 l10 0 l146 380 l138 -4 l4 -430 l19 -258 l-135 0 l5 260 l-11 263 l-120 -331 l-123 -6 l-112 337 l-9 -263 l7 -260 l-124 0 l14 243 l6 429 l159 25 l126 -385 Z" /><glyph glyph-name="N" unicode="n" d="M609 692 l-13 -432 l11 -238 l-118 -25 l-298 482 l0 -219 l14 -260 l-125 0 l12 243 l-12 444 l120 6 l297 -489 l-10 473 l122 15 Z" /><glyph glyph-name="O" unicode="o" d="M360 700 q118 0 194.5 -90 q76.5 -90 76.5 -229 q0 -176 -91 -284 q-91 -108 -239 -108 q-115 0 -193 92.5 q-78 92.5 -78 228.5 q0 170 93 280 q93 110 237 110 ZM495 325 q0 253 -166 253 q-76 0 -119.5 -56.5 q-43.5 -56.5 -43.5 -169 q0 -112.5 46.5 -185 q46.5 -72.5 123 -72.5 q76.5 0 118 61.5 q41.5 61.5 41.5 168.5 Z" /><glyph glyph-name="P" unicode="p" d="M297 690 q96 0 153 -54.5 q57 -54.5 57 -149.5 q0 -95 -72 -162.5 q-72 -67.5 -176 -67.5 l-57 0 l12 -256 l-134 0 l12 243 l-12 447 l217 0 ZM261 589 l-49 0 l-7 -236 l68 0 q50 0 77.5 33 q27.5 33 27.5 94 q0 109 -117 109 Z" /><glyph glyph-name="Q" unicode="q" d="M360 700 q118 0 194.5 -90 q76.5 -90 76.5 -229 q0 -162 -100 -280 l132 -157 l-99 -73 l-115 160 q-70 -42 -148 -42 q-115 0 -193 92.5 q-78 92.5 -78 228.5 q0 170 93 280 q93 110 237 110 ZM495 325 q0 253 -166 253 q-76 0 -119.5 -56.5 q-43.5 -56.5 -43.5 -169 q0 -112.5 46.5 -185 q46.5 -72.5 127.5 -72.5 q30 0 56 12 l-119 167 l69 48 l120 -143 q29 61 29 146 Z" /><glyph glyph-name="R" unicode="r" d="M259 266 l-57 0 l0 -6 l12 -260 l-134 0 l12 243 l-12 447 l217 0 q96 0 153 -52 q57 -52 57 -138 q0 -65 -33.5 -118.5 q-33.5 -53.5 -90.5 -84.5 l174 -246 l-121 -62 l-156 278 q-7 -1 -21 -1 ZM261 589 l-49 0 l-7 -226 l68 0 q50 0 77.5 33 q27.5 33 27.5 94 q0 99 -117 99 Z" /><glyph glyph-name="S" unicode="s" d="M91 199 q85 -85 170 -85 q44 0 70.5 20.5 q26.5 20.5 26.5 53 q0 32.5 -32 55 q-32 22.5 -77.5 39.5 q-45.5 17 -90.5 38.5 q-45 21.5 -77 61.5 q-32 40 -32 97 q0 90 75 155.5 q75 65.5 178 65.5 q47 0 91 -10 q44 -10 85 -29 l-68 -146 q-28 22 -76.5 40.5 q-48.5 18.5 -85 18.5 q-36.5 0 -59 -17.5 q-22.5 -17.5 -22.5 -46.5 q0 -29 32 -51.5 q32 -22.5 77.5 -39.5 q45.5 -17 91 -37.5 q45.5 -20.5 77.5 -60.5 q32 -40 32 -97 q0 -94 -75 -164.5 q-75 -70.5 -175 -70.5 q-75 0 -133 36 q-51 31 -72 55 l-9 11 l78 108 Z" /><glyph glyph-name="T" unicode="t" d="M0 575 l11 115 l475 0 l-11 -115 l-174 15 l-4 -330 l12 -260 l-140 0 l12 243 l-4 346 l-177 -14 Z" /><glyph glyph-name="U" unicode="u" d="M291 -11 q-90 0 -151.5 55 q-61.5 55 -61.5 136 l-10 490 l144 25 l-16 -438 q0 -70 32.5 -109 q32.5 -39 100.5 -39 q68 0 98 38 q30 38 30 131 l-12 392 l140 25 l-11 -440 q0 -118 -79 -192 q-79 -74 -204 -74 Z" /><glyph glyph-name="V" unicode="v" d="M296 125 l12 0 l50 172 l105 399 l121 -18 l-119 -397 l-78 -273 l-185 -13 l-71 267 l-116 409 l142 25 l91 -386 l48 -185 Z" /><glyph glyph-name="W" unicode="w" d="M641 125 l11 0 l47 172 l96 399 l113 -18 l-109 -397 l-67 -273 l-183 -13 l-57 267 l-34 132 l-30 -113 l-67 -273 l-180 -13 l-60 267 l-104 409 l130 25 l81 -386 l45 -185 l11 0 l53 185 l73 270 l-23 91 l132 25 l79 -386 l43 -185 Z" /><glyph glyph-name="X" unicode="x" d="M463 -9 l-167 259 l-161 -260 l-108 53 l197 300 l-212 272 l124 81 l161 -250 l155 254 l105 -62 l-183 -285 l212 -284 l-123 -78 Z" /><glyph glyph-name="Y" unicode="y" d="M283 395 l12 0 l74 136 l75 165 l122 -18 l-92 -167 l-130 -254 l11 -257 l-140 0 l10 240 l-126 256 l-96 175 l141 25 l65 -152 l74 -149 Z" /><glyph glyph-name="Z" unicode="z" d="M39 102 l322 476 l-326 -22 l24 138 l228 -11 l229 12 l-15 -107 l-323 -478 l351 22 l-20 -138 l-241 11 l-246 -11 l17 108 Z" /><glyph glyph-name="bracketleft" unicode="[" d="M278 -132 l-209 -12 l9 368 l-9 517 l208 -12 l0 -57 l-112 -14 l0 -719 l113 -14 l0 -57 Z" /><glyph glyph-name="backslash" unicode="\" d="M293 -117 l-90 -16 l-217 875 l90 16 l217 -875 Z" /><glyph glyph-name="bracketright" unicode="]" d="M209 -144 l-209 12 l0 57 l113 14 l0 719 l-112 14 l0 57 l208 12 l-9 -517 l9 -368 Z" /><glyph glyph-name="asciicircum" unicode="^" d="M17 299 l8 91 l383 0 l-8 -91 l-383 0 ZM17 129 l8 91 l383 0 l-8 -91 l-383 0 Z" /><glyph glyph-name="underscore" unicode="_" d="M-8 -220 l8 89 l433 0 l-8 -89 l-433 0 Z" /><glyph glyph-name="grave" unicode="`" d="M39 623 l11 102 q128 -48 229 -78 l-5 -72 l-235 48 Z" /><glyph glyph-name="a" unicode="a" d="M158 0 q-59 0 -96.5 37.5 q-37.5 37.5 -37.5 101 q0 63.5 58 110 q58 46.5 141 46.5 l68 0 l0 17 q0 49 -20 67 q-20 18 -75 18 q-23 0 -54.5 -9.5 q-31.5 -9.5 -70.5 -29.5 l-29 79 q43 30 104.5 54 q61.5 24 101.5 24 q157 0 157 -152 l0 -196 q0 -56 35 -125 l-106 -45 q-25 48 -37 86 q-55 -83 -139 -83 ZM200 102 q40 0 91 41 l0 67 q-53 12 -86 12 q-63 0 -63 -56 q0 -29 16 -46.5 q16 -17.5 42 -17.5 Z" /><glyph glyph-name="b" unicode="b" d="M323 505 q67 0 109 -58 q42 -58 42 -149 q0 -131 -68.5 -214.5 q-68.5 -83.5 -177.5 -83.5 q-50 0 -168 16 l10 227 l-12 506 l137 25 l-13 -258 l0 -108 q11 16 27 34 q16 18 50 40.5 q34 22.5 64 22.5 ZM284 375 q-46 0 -102 -28 l0 -87 l6 -147 q42 -5 79 -5 q96 0 96 133.5 q0 133.5 -79 133.5 Z" /><glyph glyph-name="c" unicode="c" d="M230 385 q-44 0 -68 -31.5 q-24 -31.5 -24 -96.5 q0 -65 24.5 -104.5 q24.5 -39.5 71.5 -39.5 q24 0 47 15 q23 15 35 30 l11 16 l50 -52 q-3 -5 -7.5 -14 q-4.5 -9 -22 -32 q-17.5 -23 -37 -40.5 q-19.5 -17.5 -50.5 -32 q-31 -14.5 -65 -14.5 q-75 0 -122 61 q-47 61 -47 159 q0 122 71 214 q71 92 166 92 q29 0 58 -8.5 q29 -8.5 59 -26.5 l-70 -123 q-36 28 -80 28 Z" /><glyph glyph-name="d" unicode="d" d="M322 98 q-78 -98 -135 -98 q-71 0 -116.5 58 q-45.5 58 -45.5 149 q0 125 69.5 211 q69.5 86 170.5 86 l56 -8 l0 19 l-12 234 l137 25 l-13 -514 l0 -88 q0 -60 30 -138 l-108 -45 q-29 60 -33 109 ZM137 259 q0 -64 23.5 -100 q23.5 -36 68 -36 q44.5 0 92.5 36 l0 216 q-60 12 -89 12 q-45 0 -70 -32 q-25 -32 -25 -96 Z" /><glyph glyph-name="e" unicode="e" d="M238 102 q29 0 61 15 q32 15 50 30 l18 15 l46 -56 q-10 -17 -31 -39 q-21 -22 -42.5 -37.5 q-21.5 -15.5 -57 -28 q-35.5 -12.5 -73.5 -12.5 q-81 0 -132 61.5 q-51 61.5 -51 158.5 q0 122 71 214 q71 92 166 92 q73 0 113.5 -41 q40.5 -41 40.5 -115 q0 -44 -15 -100 l-20 -21 l-250 -23 q17 -113 106 -113 ZM238 412 q-44 0 -74 -35.5 q-30 -35.5 -35 -90.5 l170 21 q3 23 3 38 q0 67 -64 67 Z" /><glyph glyph-name="f" unicode="f" d="M325 651 q-37 9 -67 9 q-30 0 -43.5 -18 q-13.5 -18 -13.5 -63 l-1 -95 l108 0 l-11 -82 l-97 0 l-1 -142 l11 -235 l-135 -25 l12 243 l-4 159 l-66 0 l11 82 l53 0 l-1 76 q0 89 55 151.5 q55 62.5 134 62.5 q42 0 87 -9 l-31 -114 Z" /><glyph glyph-name="g" unicode="g" d="M23 -99 q0 88 164 138 q-39 20 -39 52 q0 13 10 26 q10 13 29 27 l0 8 q-72 0 -114.5 40 q-42.5 40 -42.5 107 q0 87 71 151.5 q71 64.5 168 64.5 q25 0 73 -10 q48 -10 94 -10 l77 0 l-10 -87 l-75 9 q10 -29 10 -66 q0 -37 -17.5 -73.5 q-17.5 -36.5 -42 -58.5 q-24.5 -22 -49 -38.5 q-24.5 -16.5 -42 -29 q-17.5 -12.5 -17.5 -22.5 q0 -19 40 -33 q106 -43 143.5 -73 q37.5 -30 37.5 -74 q0 -74 -74.5 -121.5 q-74.5 -47.5 -177.5 -47.5 q-103 0 -159.5 33 q-56.5 33 -56.5 88 ZM325 321 q0 49 -22 72 q-22 23 -69 23 q-91 0 -91 -89.5 q0 -89.5 97 -89.5 q85 0 85 84 ZM361 -66 q0 18 -19 33.5 q-19 15.5 -68 36.5 q-73 -20 -100.5 -37 q-27.5 -17 -27.5 -42 q0 -25 27.5 -40.5 q27.5 -15.5 76.5 -15.5 q49 0 80 18 q31 18 31 47 Z" /><glyph glyph-name="h" unicode="h" d="M350 253 q0 69 -12 92 q-12 23 -56 23 q-44 0 -100 -35 l0 -73 l11 -235 l-135 -25 l12 243 l-12 506 l137 25 l-13 -259 l0 -117 q15 20 34 39 q19 19 59 43 q40 24 85.5 24 q45.5 0 76.5 -35.5 q31 -35.5 31 -96.5 l-6 -112 l11 -240 l-135 -25 l12 258 Z" /><glyph glyph-name="i" unicode="i" d="M192 509 l-12 -249 l11 -235 l-134 -25 l12 243 l-11 241 l134 25 ZM51 655.5 q0 33.5 26 60 q26 26.5 60 26.5 q34 0 52 -18.5 q18 -18.5 18 -55.5 q0 -37 -25.5 -63.5 q-25.5 -26.5 -59 -26.5 q-33.5 0 -52.5 22 q-19 22 -19 55.5 Z" /><glyph glyph-name="j" unicode="j" d="M3 -220 q-41 0 -82 9 l31 114 q34 -9 63.5 -9 q29.5 0 42.5 22 q13 22 13 79 l-1 248 l-11 241 l134 25 l-12 -249 l11 -226 q0 -104 -56 -179 q-56 -75 -133 -75 ZM52 654.5 q0 34.5 26 61 q26 26.5 60.5 26.5 q34.5 0 52 -18.5 q17.5 -18.5 17.5 -55 q0 -36.5 -25 -63.5 q-25 -27 -58.5 -27 q-33.5 0 -53 21 q-19.5 21 -19.5 55.5 Z" /><glyph glyph-name="k" unicode="k" d="M370 -10 l-188 277 l0 -7 l11 -235 l-135 -25 l12 243 l-12 506 l137 25 l-13 -483 l200 219 l94 -64 l-175 -164 l183 -216 l-114 -76 Z" /><glyph glyph-name="l" unicode="l" d="M195 774 l-13 -514 l11 -235 l-135 -25 l12 243 l-12 506 l137 25 Z" /><glyph glyph-name="m" unicode="m" d="M348 253 q0 69 -12 92 q-12 23 -56 23 q-44 0 -100 -35 l0 -73 l11 -235 l-134 -25 l12 243 q-4 134 -22 240 l121 26 q7 -58 10 -113 q15 20 34 39.5 q19 19.5 60 44 q41 24.5 83 24.5 q42 0 71 -27 q29 -27 37 -74 q83 101 168 101 q53 0 84 -35.5 q31 -35.5 31 -96.5 l-6 -112 l11 -240 l-135 -25 l12 258 q0 69 -12 92 q-12 23 -55 23 q-43 0 -97 -33 l-4 -75 l11 -240 l-135 -25 l12 258 Z" /><glyph glyph-name="n" unicode="n" d="M348 253 q0 69 -12 92 q-12 23 -56 23 q-44 0 -100 -35 l0 -73 l11 -235 l-134 -25 l12 243 q-4 134 -22 240 l121 26 q7 -58 10 -113 q15 20 34 39.5 q19 19.5 60 44 q41 24.5 86.5 24.5 q45.5 0 76.5 -35.5 q31 -35.5 31 -96.5 l-6 -112 l11 -240 l-135 -25 l12 258 Z" /><glyph glyph-name="o" unicode="o" d="M28 209 q0 128 69 217 q69 89 161.5 89 q92.5 0 144 -60 q51.5 -60 51.5 -159 q0 -132 -66.5 -219.5 q-66.5 -87.5 -167.5 -87.5 q-83 0 -137.5 62.5 q-54.5 62.5 -54.5 157.5 ZM342 244 q0 145 -99 145 q-103 0 -103 -136 q0 -71 29 -111 q29 -40 76.5 -40 q47.5 0 72 36.5 q24.5 36.5 24.5 105.5 Z" /><glyph glyph-name="p" unicode="p" d="M325 505 q64 0 107.5 -56 q43.5 -56 43.5 -151 q0 -133 -68.5 -215.5 q-68.5 -82.5 -170.5 -82.5 q-21 0 -47 3 l5 -191 l-137 -25 l13 456 l1 0 q-4 134 -22 240 l121 26 q6 -53 10 -105 q2 5 20.5 27.5 q18.5 22.5 54.5 48 q36 25.5 69 25.5 ZM286 375 q-53 0 -103 -29 l0 -86 l4 -143 q54 -9 82 -9 q96 0 96 133.5 q0 133.5 -79 133.5 Z" /><glyph glyph-name="q" unicode="q" d="M321 96 q-74 -96 -138 -96 q-64 0 -111 56 q-47 56 -47 151 q0 125 69.5 211 q69.5 86 170.5 86 l95 -13 l85 24 l-12 -255 l12 -448 l-137 -25 l13 202 l0 107 ZM137 263 q0 -140 91 -140 q45 0 93 36 l0 84 l-7 134 q-62 10 -82 10 q-44 0 -69.5 -30.5 q-25.5 -30.5 -25.5 -93.5 Z" /><glyph glyph-name="r" unicode="r" d="M47 483 l121 26 q9 -77 12 -146 q91 141 171 141 l-11 -156 q-58 0 -91.5 -10.5 q-33.5 -10.5 -68.5 -41.5 l0 -36 l11 -235 l-134 -25 l12 243 q-4 134 -22 240 Z" /><glyph glyph-name="s" unicode="s" d="M209 93 q52 0 52 46 q0 16 -22.5 30 q-22.5 14 -55 28 q-32.5 14 -65 31.5 q-32.5 17.5 -55 48.5 q-22.5 31 -22.5 71 q0 67 59 117 q59 50 136 50 q36 0 70.5 -8.5 q34.5 -8.5 66.5 -26.5 l-67 -122 q-7 6 -18 15 q-11 9 -41.5 23.5 q-30.5 14.5 -54 14.5 q-23.5 0 -36 -10.5 q-12.5 -10.5 -12.5 -29 q0 -18.5 34.5 -37 q34.5 -18.5 75.5 -34 q41 -15.5 75.5 -51 q34.5 -35.5 34.5 -84.5 q0 -70 -57.5 -123 q-57.5 -53 -132.5 -53 q-48 0 -89.5 21 q-41.5 21 -59.5 42 l-18 21 l79 92 q6 -8 17 -20 q11 -12 43.5 -32 q32.5 -20 62.5 -20 Z" /><glyph glyph-name="t" unicode="t" d="M97 484 l0 109 l135 26 l-13 -135 l121 0 l-11 -82 l-114 0 l-5 -209 q0 -47 9 -62.5 q9 -15.5 33 -15.5 q24 0 64 11 l6 -71 q-66 -55 -116 -55 q-50 0 -82 36.5 q-32 36.5 -32 95.5 l6 112 l-1 158 l-69 0 l11 82 l58 0 Z" /><glyph glyph-name="u" unicode="u" d="M178 0 q-54 0 -87.5 35.5 q-33.5 35.5 -33.5 93.5 l6 115 l-11 240 l134 25 l-13 -304 q0 -43 15.5 -63 q15.5 -20 49.5 -20 q34 0 94 34 l0 60 l-11 263 l135 25 l-12 -250 l1 -82 q0 -64 33 -129 l-104 -46 q-33 65 -40 104 q-90 -101 -156 -101 Z" /><glyph glyph-name="v" unicode="v" d="M228 125 l13 0 l33 137 l54 247 l124 -15 l-75 -248 l-63 -234 l-171 -15 l-59 243 l-72 243 l136 25 l43 -220 l37 -163 Z" /><glyph glyph-name="w" unicode="w" d="M504 125 l13 0 l32 137 l52 247 l122 -15 l-73 -248 l-61 -234 l-164 -15 l-55 243 l-5 16 l-67 -244 l-159 -15 l-58 243 l-69 243 l131 25 l41 -220 l36 -163 l13 0 l86 285 l-21 73 l129 25 l42 -220 l35 -163 Z" /><glyph glyph-name="x" unicode="x" d="M353 -10 l-119 177 l-123 -177 l-99 55 l157 203 l-149 184 l111 76 l109 -169 l118 171 l97 -60 l-149 -194 l158 -190 l-111 -76 Z" /><glyph glyph-name="y" unicode="y" d="M72 -193 l103 231 l-74 202 l-101 243 l133 25 l64 -213 l33 -101 l13 0 l24 73 l72 242 l123 -15 l-177 -465 l-84 -249 l-129 27 Z" /><glyph glyph-name="z" unicode="z" d="M41 99 l211 301 l-221 -15 l23 126 l171 -11 l167 12 l-17 -104 l-212 -302 l243 14 l-22 -126 l-170 11 l-190 -11 l17 105 Z" /><glyph glyph-name="braceleft" unicode="{" d="M35 328 q34 8 48 22 q14 14 14 39.5 q0 25.5 -21.5 97.5 q-21.5 72 -21.5 96 q0 79 51.5 117 q51.5 38 157.5 38 l-10 -74 q-58 0 -78 -14.5 q-20 -14.5 -20 -53.5 q0 -39 17.5 -92.5 q17.5 -53.5 17.5 -89 q0 -35.5 -16.5 -68.5 q-16.5 -33 -42.5 -49 q26 -16 42.5 -49 q16.5 -33 16.5 -68.5 q0 -35.5 -17.5 -89 q-17.5 -53.5 -17.5 -92.5 q0 -39 22 -53.5 q22 -14.5 86 -14.5 l-10 -74 q-101 0 -150 38 q-49 38 -49 117 q0 24 21.5 96 q21.5 72 21.5 97 q0 55 -72 62 l10 62 Z" /><glyph glyph-name="bar" unicode="|" d="M80 753 l91 8 l0 -897 l-91 -8 l0 897 Z" /><glyph glyph-name="braceright" unicode="}" d="M195 243 q-14 -14 -14 -39 q0 -25 21.5 -97 q21.5 -72 21.5 -96 q0 -79 -51.5 -117 q-51.5 -38 -157.5 -38 l10 74 q58 0 78 14.5 q20 14.5 20 53.5 q0 39 -17.5 92.5 q-17.5 53.5 -17.5 88.5 q0 35 16.5 68 q16.5 33 42.5 50 q-26 16 -42.5 48.5 q-16.5 32.5 -16.5 68.5 q0 36 17.5 89.5 q17.5 53.5 17.5 92.5 q0 39 -22 53.5 q-22 14.5 -86 14.5 l10 74 q101 0 150 -38 q49 -38 49 -117 q0 -24 -21.5 -96 q-21.5 -72 -21.5 -97 q0 -55 72 -62 l-10 -62 q-34 -9 -48 -23 Z" /><glyph glyph-name="asciitilde" unicode="~" d="M131 324 l173 -42 l76 44 l28 -45 q-31 -33 -64 -59.5 q-33 -26.5 -51 -26.5 l-173 42 l-76 -44 l-28 45 q31 33 64 59.5 q33 26.5 51 26.5 Z" /><glyph glyph-name="nbspace" unicode=" " d="" /><glyph glyph-name="exclamdown" unicode="¡" d="M207 443.5 q0 -33.5 -24 -58 q-24 -24.5 -56 -24.5 q-32 0 -48.5 17.5 q-16.5 17.5 -16.5 51.5 q0 34 23 59.5 q23 25.5 54.5 25.5 q31.5 0 49.5 -19 q18 -19 18 -52.5 ZM20 -191 l56 443 l95 14 l0 -432 l-151 -25 Z" /><glyph glyph-name="cent" unicode="¢" d="M28 225 q0 107 59.5 191.5 q59.5 84.5 142.5 96.5 l19 131 l47 -2 l-19 -129 q47 -6 87 -31 l-67 -117 q-16 12 -39 20 l-36 -252 l3 0 q23 0 45.5 14.5 q22.5 14.5 33.5 28.5 l10 15 l47 -49 q-4 -11 -22 -35.5 q-18 -24.5 -35 -40.5 q-46 -44 -99 -49 l-21 -143 l-47 3 l21 142 q-59 12 -94.5 67.5 q-35.5 55.5 -35.5 138.5 ZM134 280 q0 -98 43 -132 l35 243 q-37 -3 -57.5 -32.5 q-20.5 -29.5 -20.5 -78.5 Z" /><glyph glyph-name="sterling" unicode="£" d="M157 109 l23 1 q37 0 84 -12 q47 -12 66.5 -12 q19.5 0 46.5 10.5 q27 10.5 59 31.5 l33 -75 q-50 -50 -102 -68 q-23 -8 -51 -8 q-28 0 -82 21 q-54 21 -82 21 q-48 0 -136 -30 l15 95 q36 24 52 47 q34 50 34 102 l-7 46 l-66 0 l11 82 l44 0 l-9 65 q0 94 63.5 159 q63.5 65 155.5 65 q50 0 127 -15 l-31 -114 q-61 15 -107 15 q-46 0 -66.5 -21 q-20.5 -21 -20.5 -70 l8 -84 l164 0 l-11 -82 l-146 0 l3 -29 q0 -81 -72 -141 Z" /><glyph glyph-name="currency" unicode="¤" d="M93 186 q-18 33 -18 73.5 q0 40.5 20 74.5 l-86 84 l81 58 l70 -76 q34 18 72.5 18 q38.5 0 74.5 -18 l80 89 l61 -84 l-76 -70 q21 -36 21 -76 q0 -40 -19 -73 l88 -82 l-84 -60 l-70 76 q-34 -20 -74.5 -20 q-40.5 0 -77.5 21 l-80 -89 l-60 86 l77 68 ZM176.5 316 q-23.5 -24 -23.5 -57 q0 -33 23.5 -57 q23.5 -24 56.5 -24 q33 0 57.5 24 q24.5 24 24.5 57 q0 33 -24.5 57 q-24.5 24 -57.5 24 q-33 0 -56.5 -24 Z" /><glyph glyph-name="yen" unicode="¥" d="M525 198 l-4 -47 l-173 0 l7 -151 l-140 0 l7 151 l-180 0 l5 47 l177 0 l1 20 l-28 57 l-155 0 l5 47 l126 0 l-61 124 l-97 175 l141 25 l66 -152 l61 -121 l12 0 l57 108 l78 165 l122 -18 l-95 -167 l-70 -139 l138 0 l-4 -47 l-157 0 l-20 -40 l1 -37 l180 0 Z" /><glyph glyph-name="brokenbar" unicode="¦" d="M80 753 l91 8 l0 -333 l-91 -8 l0 333 ZM80 187 l91 8 l0 -331 l-91 -8 l0 331 Z" /><glyph glyph-name="section" unicode="§" d="M103 18 q12 -12 46 -32 q34 -20 60 -20 q26 0 39.5 10.5 q13.5 10.5 13.5 28.5 q0 18 -24.5 36 q-24.5 18 -60 34 q-35.5 16 -71 35.5 q-35.5 19.5 -60 52 q-24.5 32.5 -24.5 73.5 q0 87 90 149 q-52 43 -52 107 q0 64 53 111 q53 47 133 47 q33 0 66.5 -8.5 q33.5 -8.5 68.5 -26.5 l-57 -122 q-64 53 -118 53 q-21 0 -33 -9.5 q-12 -9.5 -12 -25.5 q0 -16 24.5 -33 q24.5 -17 59.5 -33 q35 -16 70.5 -35.5 q35.5 -19.5 60 -52 q24.5 -32.5 24.5 -74.5 q0 -83 -86 -152 q49 -42 49 -106 q0 -64 -52 -113.5 q-52 -49.5 -126 -49.5 q-46 0 -89 21 q-43 21 -63 42 l-20 21 l71 92 q7 -8 19 -20 ZM124 266 q0 -24 28 -43 q26 -17 58 -31.5 q32 -14.5 45 -21.5 q44 47 44 82 q0 25 -28 44 q-20 14 -54 30 q-34 16 -46 22 q-47 -44 -47 -82 Z" /><glyph glyph-name="dieresis" unicode="¨" d="M-23 656 q0 28 21 50 q21 22 49 22 q28 0 43 -15.5 q15 -15.5 15 -46 q0 -30.5 -21 -52.5 q-21 -22 -48.5 -22 q-27.5 0 -43 18 q-15.5 18 -15.5 46 ZM139 656 q0 28 21 50 q21 22 50 22 q57 0 57 -58 q0 -34 -20.5 -56 q-20.5 -22 -48 -22 q-27.5 0 -43.5 18 q-16 18 -16 46 Z" /><glyph glyph-name="copyright" unicode="©" d="M125.5 596 q105.5 104 254.5 104 q149 0 254.5 -104 q105.5 -104 105.5 -251 q0 -147 -105.5 -251.5 q-105.5 -104.5 -254.5 -104.5 q-149 0 -254.5 104.5 q-105.5 104.5 -105.5 251.5 q0 147 105.5 251 ZM380 49 q122 0 208 86.5 q86 86.5 86 209 q0 122.5 -86 209 q-86 86.5 -208 86.5 q-122 0 -208 -86.5 q-86 -86.5 -86 -209 q0 -122.5 86 -209 q86 -86.5 208 -86.5 ZM375 147 q-63 0 -106 52 q-43 52 -43 137.5 q0 85.5 51.5 149 q51.5 63.5 126.5 63.5 q29 0 54 -6 q25 -6 46 -18 l-37 -79 q-37 31 -77.5 31 q-40.5 0 -63.5 -32 q-23 -32 -23 -91.5 q0 -59.5 23.5 -97 q23.5 -37.5 64.5 -37.5 q26 0 48 16.5 q22 16.5 32 43.5 l47 -27 q-20 -50 -57.5 -77.5 q-37.5 -27.5 -85.5 -27.5 Z" /><glyph glyph-name="ordfeminine" unicode="ª" d="M118 316 q-46 0 -74 26.5 q-28 26.5 -28 72 q0 45.5 43.5 78.5 q43.5 33 106.5 33 l47 0 l0 9 q0 33 -14 44.5 q-14 11.5 -42 11.5 q-44 0 -106 -28 l-23 61 q88 54 157 54 q119 0 119 -108 l0 -135 q0 -40 27 -89 l-84 -33 q-17 31 -27 58 q-41 -55 -102 -55 ZM109 434 q0 -18 11.5 -30 q11.5 -12 33.5 -12 q22 0 59 28 l0 42 q-40 7 -60 7 q-44 0 -44 -35 Z" /><glyph glyph-name="guillemotleft" unicode="«" d="M127 265 l105 -136 l-58 -48 l-167 177 l167 187 l58 -48 l-105 -132 ZM317 265 l105 -136 l-58 -48 l-167 177 l167 187 l58 -48 l-105 -132 Z" /><glyph glyph-name="logicalnot" unicode="¬" d="M371 336 l0 -247 l-100 -9 l0 165 l-271 0 l8 91 l363 0 Z" /><glyph glyph-name="registered" unicode="®" d="M20 506.5 q0 78.5 56.5 134.5 q56.5 56 136 56 q79.5 0 136.5 -56 q57 -56 57 -134.5 q0 -78.5 -57 -135 q-57 -56.5 -136.5 -56.5 q-79.5 0 -136 56.5 q-56.5 56.5 -56.5 135 ZM212 364 q59 0 101 41.5 q42 41.5 42 101 q0 59.5 -42 101 q-42 41.5 -100.5 41.5 q-58.5 0 -100 -41.5 q-41.5 -41.5 -41.5 -101 q0 -59.5 41 -101 q41 -41.5 100 -41.5 ZM216 620 q30 0 49 -17 q19 -17 19 -43 q0 -40 -35 -61 l52 -71 l-45 -23 l-47 82 l-16 0 l4 -77 l-50 0 l3 75 l-3 135 l69 0 ZM206 581 l-9 0 l-3 -56 l16 0 q25 0 25 31 q0 25 -29 25 Z" /><glyph glyph-name="macron" unicode="¯" d="M0 603 l8 85 l236 0 l-8 -85 l-236 0 Z" /><glyph glyph-name="degree" unicode="°" d="M20 576 q0 51 37 87.5 q37 36.5 88.5 36.5 q51.5 0 88.5 -36.5 q37 -36.5 37 -87.5 q0 -51 -37 -87.5 q-37 -36.5 -88.5 -36.5 q-51.5 0 -88.5 36.5 q-37 36.5 -37 87.5 ZM145 510 q26 0 46 19.5 q20 19.5 20 46 q0 26.5 -19.5 46 q-19.5 19.5 -46 19.5 q-26.5 0 -46 -19.5 q-19.5 -19.5 -19.5 -46 q0 -26.5 19.5 -46 q19.5 -19.5 45.5 -19.5 Z" /><glyph glyph-name="plusminus" unicode="±" d="M162 306 l0 147 l100 9 l0 -156 l146 0 l-8 -91 l-138 0 l0 -146 l-100 -9 l0 155 l-145 0 l8 91 l137 0 ZM17 -91 l8 91 l383 0 l-8 -91 l-383 0 Z" /><glyph glyph-name="twosuperior" unicode="²" d="M219 643 q0 16 -8.5 22 q-8.5 6 -33 6 q-24.5 0 -58.5 -11.5 q-34 -11.5 -74 -33.5 l-6 0 l-9 6 l19 100 l3 4 q76 38 139.5 38 q63.5 0 102.5 -31.5 q39 -31.5 39 -83.5 q0 -67 -73 -142 l-105 -103 l205 11 l-14 -108 l-155 6 l-176 -5 l14 84 l149 164 q41 44 41 77 Z" /><glyph glyph-name="threesuperior" unicode="³" d="M50 754 q61 20 121.5 20 q60.5 0 101 -30.5 q40.5 -30.5 40.5 -77.5 q0 -62 -57 -95 q78 -36 78 -105 q0 -69 -51.5 -110.5 q-51.5 -41.5 -129.5 -41.5 q-37 0 -72 10 q-35 10 -69 29 l-4 8 l31 84 l10 3 l4 -1 q53 -46 106 -46 q32 0 51.5 13 q19.5 13 19.5 33 q0 62 -90 62 l-71 0 l16 83 l46 0 q73 0 73 54 q0 20 -15.5 31.5 q-15.5 11.5 -38.5 11.5 q-45 0 -92 -24 l-15 -8 l-5 0 l-8 6 l14 85 l4 5 l2 1 Z" /><glyph glyph-name="acute" unicode="´" d="M198 725 l11 -102 q-131 -30 -235 -48 l-5 72 q86 25 229 78 Z" /><glyph glyph-name="mu" unicode="µ&#x3bc;" d="M184 205 q0 -49 16 -66 q16 -17 49.5 -17 q33.5 0 93.5 34 l0 60 l-11 263 l135 25 l-12 -250 l1 -82 q0 -64 33 -129 l-104 -46 q-33 65 -40 104 q-15 -17 -34.5 -35.5 q-19.5 -18.5 -59.5 -42 q-40 -23.5 -73 -23.5 l10 -189 l-122 -24 l8 457 l-11 240 l134 25 l-13 -304 Z" /><glyph glyph-name="paragraph" unicode="¶" d="M255 256 q-104 0 -176 67.5 q-72 67.5 -72 162.5 q0 95 57 149.5 q57 54.5 153 54.5 l25 0 l13 -434 ZM243 -10 q-41 0 -82 9 l32 120 q33 -11 63 -11 q62 0 62 101 l-14 461 l142 25 l-14 -451 q0 -109 -53 -181.5 q-53 -72.5 -136 -72.5 Z" /><glyph glyph-name="periodcentered" unicode="·" d="M30 255 q0 32 23.5 56.5 q23.5 24.5 56.5 24.5 q65 0 65 -66 q0 -38 -23.5 -63 q-23.5 -25 -55 -25 q-31.5 0 -49 20.5 q-17.5 20.5 -17.5 52.5 Z" /><glyph glyph-name="cedilla" unicode="¸" d="M134 -125 q0 31 -69 40 l21 105 l62 0 l-11 -60 q40 -10 61.5 -29.5 q21.5 -19.5 21.5 -45.5 q0 -37 -41 -67 q-41 -30 -103 -38 l-32 44 q90 16 90 51 Z" /><glyph glyph-name="onesuperior" unicode="¹" d="M220 778 l-10 -274 l8 -183 l-116 0 l8 172 l-6 157 l-98 -1 l0 60 l214 69 Z" /><glyph glyph-name="ordmasculine" unicode="º" d="M19 463 q0 90 52 152.5 q52 62.5 122 62.5 q70 0 108.5 -41.5 q38.5 -41.5 38.5 -112.5 q0 -93 -50 -154.5 q-50 -61.5 -119.5 -61.5 q-69.5 0 -110.5 44 q-41 44 -41 111 ZM181 585 q-73 0 -73 -91 q0 -47 20.5 -74.5 q20.5 -27.5 54.5 -27.5 q68 0 68 96.5 q0 96.5 -70 96.5 Z" /><glyph glyph-name="guillemotright" unicode="»" d="M120 261 l-105 136 l58 48 l167 -177 l-167 -187 l-58 48 l105 132 ZM310 261 l-105 136 l58 48 l167 -177 l-167 -187 l-58 48 l105 132 Z" /><glyph glyph-name="onequarter" unicode="¼" d="M223 703 l-10 -274 l8 -183 l-116 0 l8 172 l-6 157 l-98 -1 l0 60 l214 69 ZM464 178 l171 257 l130 16 l-11 -262 l69 3 l-8 -86 l-56 2 l4 -108 l-116 0 l7 109 l-197 -1 l7 70 ZM652 324 l-86 -134 l89 1 l-3 133 ZM225 -119 l-79 32 l421 845 l79 -32 l-421 -845 Z" /><glyph glyph-name="onehalf" unicode="½" d="M223 703 l-10 -274 l8 -183 l-116 0 l8 172 l-6 157 l-98 -1 l0 60 l214 69 ZM704 322 q0 16 -8.5 22 q-8.5 6 -33 6 q-24.5 0 -58.5 -11 q-34 -11 -74 -34 l-6 0 l-9 6 l19 100 l3 4 q76 38 139.5 38 q63.5 0 102.5 -31.5 q39 -31.5 39 -83.5 q0 -67 -73 -142 l-105 -103 l205 11 l-14 -108 l-155 6 l-176 -5 l14 84 l149 164 q41 44 41 77 ZM225 -119 l-79 32 l421 845 l79 -32 l-421 -845 Z" /><glyph glyph-name="threequarters" unicode="¾" d="M493 178 l171 257 l130 16 l-11 -262 l69 3 l-8 -86 l-56 2 l4 -108 l-116 0 l7 109 l-197 -1 l7 70 ZM53 679 q61 20 121.5 20 q60.5 0 101 -30.5 q40.5 -30.5 40.5 -77.5 q0 -62 -57 -95 q78 -36 78 -105 q0 -69 -51.5 -110.5 q-51.5 -41.5 -129.5 -41.5 q-37 0 -72 9.5 q-35 9.5 -69 29.5 l-4 8 l31 84 l10 3 l4 -1 q53 -46 106 -46 q32 0 51.5 13 q19.5 13 19.5 33 q0 62 -90 62 l-71 0 l16 83 l46 0 q73 0 73 54 q0 20 -15.5 31.5 q-15.5 11.5 -38.5 11.5 q-45 0 -91 -24 l-16 -8 l-5 0 l-8 6 l14 85 l4 5 l2 1 ZM254 -119 l-79 32 l421 845 l79 -32 l-421 -845 ZM681 324 l-86 -134 l89 1 l-3 133 Z" /><glyph glyph-name="questiondown" unicode="¿" d="M276 443.5 q0 -33.5 -24 -58 q-24 -24.5 -56 -24.5 q-32 0 -48.5 17.5 q-16.5 17.5 -16.5 51.5 q0 34 23 59.5 q23 25.5 54.5 25.5 q31.5 0 49.5 -19 q18 -19 18 -52.5 ZM134 31 q0 -105 220 -110 l-50 -112 q-148 13 -226 63 q-78 50 -78 133 q0 114 189 257 l77 -69 q-132 -85 -132 -162 Z" /><glyph glyph-name="Agrave" unicode="à" d="M484 -5 l-49 195 l-239 0 l-53 -190 l-128 10 l88 243 l134 430 l179 13 l129 -428 l83 -251 l-144 -22 ZM326 566 l-13 0 l-86 -270 l178 0 l-79 270 ZM204 808 l11 102 q128 -48 229 -78 l-5 -72 l-235 48 Z" /><glyph glyph-name="Aacute" unicode="á" d="M484 -5 l-49 195 l-239 0 l-53 -190 l-128 10 l88 243 l134 430 l179 13 l129 -428 l83 -251 l-144 -22 ZM326 566 l-13 0 l-86 -270 l178 0 l-79 270 ZM433 910 l11 -102 q-131 -30 -235 -48 l-5 72 q86 25 229 78 Z" /><glyph glyph-name="Acircumflex" unicode="â" d="M484 -5 l-49 195 l-239 0 l-53 -190 l-128 10 l88 243 l134 430 l179 13 l129 -428 l83 -251 l-144 -22 ZM326 566 l-13 0 l-86 -270 l178 0 l-79 270 ZM322 751 l-144 85 l15 62 l129 -47 l131 47 l15 -62 l-146 -85 Z" /><glyph glyph-name="Atilde" unicode="ã" d="M484 -5 l-49 195 l-239 0 l-53 -190 l-128 10 l88 243 l134 430 l179 13 l129 -428 l83 -251 l-144 -22 ZM460 888 l28 -43 q-28 -34 -58.5 -60 q-30.5 -26 -46.5 -26 q-15 2 -66.5 21 q-51.5 19 -66.5 21 l-66 -42 l-28 43 q28 34 58.5 60 q30.5 26 46.5 26 q15 -2 66.5 -21 q51.5 -19 66.5 -21 l66 42 ZM326 566 l-13 0 l-86 -270 l178 0 l-79 270 Z" /><glyph glyph-name="Adieresis" unicode="ä" d="M484 -5 l-49 195 l-239 0 l-53 -190 l-128 10 l88 243 l134 430 l179 13 l129 -428 l83 -251 l-144 -22 ZM326 566 l-13 0 l-86 -270 l178 0 l-79 270 ZM339 841 q0 28 21 50 q21 22 50 22 q57 0 57 -58 q0 -34 -20.5 -56 q-20.5 -22 -48 -22 q-27.5 0 -43.5 18 q-16 18 -16 46 ZM177 841 q0 28 21 50 q21 22 49 22 q28 0 43 -15.5 q15 -15.5 15 -46 q0 -30.5 -21 -52.5 q-21 -22 -48.5 -22 q-27.5 0 -43 18 q-15.5 18 -15.5 46 Z" /><glyph glyph-name="Aring" unicode="å" d="M484 -5 l-49 195 l-239 0 l-53 -190 l-128 10 l88 243 l134 430 l179 13 l129 -428 l83 -251 l-144 -22 ZM210 842.5 q0 48.5 33 82.5 q33 34 82 34 q49 0 79 -28 q30 -28 30 -79 q0 -51 -33 -86 q-33 -35 -81 -35 q-48 0 -79 31.5 q-31 31.5 -31 80 ZM326 566 l-13 0 l-86 -270 l178 0 l-79 270 ZM375 848.5 q0 25.5 -14 40 q-14 14.5 -37.5 14.5 q-23.5 0 -39 -16.5 q-15.5 -16.5 -15.5 -41.5 q0 -25 14.5 -41.5 q14.5 -16.5 37 -16.5 q22.5 0 38.5 18 q16 18 16 43.5 Z" /><glyph glyph-name="AE" unicode="æ" d="M462 0 l-35 190 l-239 0 l-66 -190 l-127 10 l105 243 l167 437 l500 0 l-11 -107 l-296 0 l41 -177 l244 0 l-11 -106 l-209 0 l50 -194 l235 0 l-11 -106 l-337 0 ZM345 566 l-13 0 l-104 -270 l177 0 l-60 270 Z" /><glyph glyph-name="Ccedilla" unicode="ç" d="M321 -125 q0 31 -69 40 l15 76 q-102 11 -169.5 101.5 q-67.5 90.5 -67.5 217.5 q0 165 91.5 278 q91.5 113 224.5 113 q52 0 96.5 -10.5 q44.5 -10.5 63.5 -21.5 l18 -11 l-68 -139 q-23 20 -65 37.5 q-42 17.5 -76 17.5 q-69 0 -110.5 -57 q-41.5 -57 -41.5 -162.5 q0 -105.5 43 -173 q43 -67.5 117 -67.5 q48 0 87 30 q39 30 55 80 l83 -48 q-30 -79 -87.5 -127 q-57.5 -48 -131.5 -57 l-5 -32 q40 -10 61.5 -29.5 q21.5 -19.5 21.5 -45.5 q0 -37 -41 -67 q-41 -30 -103 -38 l-32 44 q90 16 90 51 Z" /><glyph glyph-name="Egrave" unicode="è" d="M80 0 l12 243 l-12 447 l375 0 l-11 -107 l-225 0 l-6 -177 l200 0 l-11 -106 l-193 0 l-1 -40 l7 -154 l242 0 l-11 -106 l-366 0 ZM161 808 l11 102 q128 -48 229 -78 l-5 -72 l-235 48 Z" /><glyph glyph-name="Eacute" unicode="é" d="M80 0 l12 243 l-12 447 l375 0 l-11 -107 l-225 0 l-6 -177 l200 0 l-11 -106 l-193 0 l-1 -40 l7 -154 l242 0 l-11 -106 l-366 0 ZM390 910 l11 -102 q-131 -30 -235 -48 l-5 72 q85 25 229 78 Z" /><glyph glyph-name="Ecircumflex" unicode="ê" d="M279 751 l-144 85 l15 62 l129 -47 l131 47 l15 -62 l-146 -85 ZM80 0 l12 243 l-12 447 l375 0 l-11 -107 l-225 0 l-6 -177 l200 0 l-11 -106 l-193 0 l-1 -40 l7 -154 l242 0 l-11 -106 l-366 0 Z" /><glyph glyph-name="Edieresis" unicode="ë" d="M80 0 l12 243 l-12 447 l375 0 l-11 -107 l-225 0 l-6 -177 l200 0 l-11 -106 l-193 0 l-1 -40 l7 -154 l242 0 l-11 -106 l-366 0 ZM134 841 q0 28 21 50 q21 22 49 22 q28 0 43 -15.5 q15 -15.5 15 -46 q0 -30.5 -21 -52.5 q-21 -22 -48.5 -22 q-27.5 0 -43 18 q-15.5 18 -15.5 46 ZM296 841 q0 28 21 50 q21 22 49 22 q58 0 58 -58 q0 -34 -20.5 -56 q-20.5 -22 -48 -22 q-27.5 0 -43.5 18 q-16 18 -16 46 Z" /><glyph glyph-name="Igrave" unicode="ì" d="M222 695 l-14 -435 l12 -260 l-140 0 l12 243 l-12 427 l142 25 ZM34 808 l11 102 q128 -48 229 -78 l-5 -72 l-235 48 Z" /><glyph glyph-name="Iacute" unicode="í" d="M222 695 l-14 -435 l12 -260 l-140 0 l12 243 l-12 427 l142 25 ZM263 910 l11 -102 q-131 -30 -235 -48 l-5 72 q86 25 229 78 Z" /><glyph glyph-name="Icircumflex" unicode="î" d="M152 751 l-144 85 l15 62 l129 -47 l131 47 l15 -62 l-146 -85 ZM222 695 l-14 -435 l12 -260 l-140 0 l12 243 l-12 427 l142 25 Z" /><glyph glyph-name="Idieresis" unicode="ï" d="M222 695 l-14 -435 l12 -260 l-140 0 l12 243 l-12 427 l142 25 ZM7 841 q0 28 21 50 q21 22 49 22 q28 0 43 -15.5 q15 -15.5 15 -46 q0 -30.5 -21 -52.5 q-21 -22 -48.5 -22 q-27.5 0 -43 18 q-15.5 18 -15.5 46 ZM169 841 q0 28 21 50 q21 22 50 22 q57 0 57 -58 q0 -34 -20.5 -56 q-20.5 -22 -48 -22 q-27.5 0 -43.5 18 q-16 18 -16 46 Z" /><glyph glyph-name="Eth" unicode="ð" d="M362 690 q135 0 211 -81 q76 -81 76 -225 q0 -182 -94 -288.5 q-94 -106.5 -255 -106.5 q-71 0 -205 11 l12 243 l-2 76 l-101 0 l5 47 l94 0 l-8 324 l267 0 ZM343 92 q79 0 124.5 64 q45.5 64 45.5 186 q0 122 -44.5 181 q-44.5 59 -142.5 59 q-66 0 -93 -1 l-7 -215 l141 0 l-4 -47 l-138 0 l-2 -59 l7 -162 q84 -6 113 -6 Z" /><glyph glyph-name="Ntilde" unicode="ñ" d="M609 692 l-13 -432 l11 -238 l-118 -25 l-298 482 l0 -219 l14 -260 l-125 0 l12 243 l-12 444 l120 6 l297 -489 l-10 473 l122 15 ZM483 888 l28 -43 q-28 -34 -58.5 -60 q-30.5 -26 -46.5 -26 q-15 2 -66.5 21 q-51.5 19 -66.5 21 l-66 -42 l-28 43 q28 34 58.5 60 q30.5 26 46.5 26 q15 -2 66.5 -21 q51.5 -19 66.5 -21 l66 42 Z" /><glyph glyph-name="Ograve" unicode="ò" d="M360 700 q118 0 194.5 -90 q76.5 -90 76.5 -229 q0 -176 -91 -284 q-91 -108 -239 -108 q-115 0 -193 92.5 q-78 92.5 -78 228.5 q0 170 93 280 q93 110 237 110 ZM495 325 q0 253 -166 253 q-76 0 -119.5 -56.5 q-43.5 -56.5 -43.5 -169 q0 -112.5 46.5 -185 q46.5 -72.5 123 -72.5 q76.5 0 118 61.5 q41.5 61.5 41.5 168.5 ZM211 808 l11 102 q128 -48 229 -78 l-5 -72 l-235 48 Z" /><glyph glyph-name="Oacute" unicode="ó" d="M360 700 q118 0 194.5 -90 q76.5 -90 76.5 -229 q0 -176 -91 -284 q-91 -108 -239 -108 q-115 0 -193 92.5 q-78 92.5 -78 228.5 q0 170 93 280 q93 110 237 110 ZM495 325 q0 253 -166 253 q-76 0 -119.5 -56.5 q-43.5 -56.5 -43.5 -169 q0 -112.5 46.5 -185 q46.5 -72.5 123 -72.5 q76.5 0 118 61.5 q41.5 61.5 41.5 168.5 ZM440 910 l11 -102 q-131 -30 -235 -48 l-5 72 q86 25 229 78 Z" /><glyph glyph-name="Ocircumflex" unicode="ô" d="M329 751 l-144 85 l15 62 l129 -47 l131 47 l15 -62 l-146 -85 ZM360 700 q118 0 194.5 -90 q76.5 -90 76.5 -229 q0 -176 -91 -284 q-91 -108 -239 -108 q-115 0 -193 92.5 q-78 92.5 -78 228.5 q0 170 93 280 q93 110 237 110 ZM495 325 q0 253 -166 253 q-76 0 -119.5 -56.5 q-43.5 -56.5 -43.5 -169 q0 -112.5 46.5 -185 q46.5 -72.5 123 -72.5 q76.5 0 118 61.5 q41.5 61.5 41.5 168.5 Z" /><glyph glyph-name="Otilde" unicode="õ" d="M360 700 q118 0 194.5 -90 q76.5 -90 76.5 -229 q0 -176 -91 -284 q-91 -108 -239 -108 q-115 0 -193 92.5 q-78 92.5 -78 228.5 q0 170 93 280 q93 110 237 110 ZM495 325 q0 253 -166 253 q-76 0 -119.5 -56.5 q-43.5 -56.5 -43.5 -169 q0 -112.5 46.5 -185 q46.5 -72.5 123 -72.5 q76.5 0 118 61.5 q41.5 61.5 41.5 168.5 ZM467 888 l28 -43 q-28 -34 -58.5 -60 q-30.5 -26 -46.5 -26 q-15 2 -66.5 21 q-51.5 19 -66.5 21 l-66 -42 l-28 43 q28 34 58.5 60 q30.5 26 46.5 26 q15 -2 66.5 -21 q51.5 -19 66.5 -21 l66 42 Z" /><glyph glyph-name="Odieresis" unicode="ö" d="M360 700 q118 0 194.5 -90 q76.5 -90 76.5 -229 q0 -176 -91 -284 q-91 -108 -239 -108 q-115 0 -193 92.5 q-78 92.5 -78 228.5 q0 170 93 280 q93 110 237 110 ZM495 325 q0 253 -166 253 q-76 0 -119.5 -56.5 q-43.5 -56.5 -43.5 -169 q0 -112.5 46.5 -185 q46.5 -72.5 123 -72.5 q76.5 0 118 61.5 q41.5 61.5 41.5 168.5 ZM184 841 q0 28 21 50 q21 22 49 22 q28 0 43 -15.5 q15 -15.5 15 -46 q0 -30.5 -21 -52.5 q-21 -22 -48.5 -22 q-27.5 0 -43 18 q-15.5 18 -15.5 46 ZM346 841 q0 28 21 50 q21 22 49 22 q58 0 58 -58 q0 -34 -20.5 -56 q-20.5 -22 -48 -22 q-27.5 0 -43.5 18 q-16 18 -16 46 Z" /><glyph glyph-name="multiply" unicode="×" d="M107 90 l-59 70 l97 97 l-104 104 l64 77 l110 -111 l104 104 l59 -70 l-98 -98 l103 -103 l-64 -77 l-110 109 l-102 -102 Z" /><glyph glyph-name="Oslash" unicode="ø" d="M363 700 q64 0 121 -30 l61 110 l44 -18 l-66 -119 q52 -43 81.5 -111 q29.5 -68 29.5 -151 q0 -176 -91 -284 q-91 -108 -239 -108 q-66 0 -124 33 l-67 -121 l-43 19 l72 130 q-51 44 -80 112 q-29 68 -29 148 q0 170 93 280 q93 110 237 110 ZM349.5 95 q65.5 0 107 61.5 q41.5 61.5 41.5 179.5 q0 118 -44 182 l-212 -384 q42 -39 107.5 -39 ZM332 578 q-76 0 -119.5 -56.5 q-43.5 -56.5 -43.5 -165.5 q0 -109 42 -181 l209 378 q-35 25 -88 25 Z" /><glyph glyph-name="Ugrave" unicode="ù" d="M291 -11 q-90 0 -151.5 55 q-61.5 55 -61.5 136 l-10 490 l144 25 l-16 -438 q0 -70 32.5 -109 q32.5 -39 100.5 -39 q68 0 98 38 q30 38 30 131 l-12 392 l140 25 l-11 -440 q0 -118 -79 -192 q-79 -74 -204 -74 ZM206 808 l11 102 q128 -48 229 -78 l-5 -72 l-235 48 Z" /><glyph glyph-name="Uacute" unicode="ú" d="M291 -11 q-90 0 -151.5 55 q-61.5 55 -61.5 136 l-10 490 l144 25 l-16 -438 q0 -70 32.5 -109 q32.5 -39 100.5 -39 q68 0 98 38 q30 38 30 131 l-12 392 l140 25 l-11 -440 q0 -118 -79 -192 q-79 -74 -204 -74 ZM435 910 l11 -102 q-131 -30 -235 -48 l-5 72 q85 25 229 78 Z" /><glyph glyph-name="Ucircumflex" unicode="û" d="M324 751 l-144 85 l15 62 l129 -47 l131 47 l15 -62 l-146 -85 ZM291 -11 q-90 0 -151.5 55 q-61.5 55 -61.5 136 l-10 490 l144 25 l-16 -438 q0 -70 32.5 -109 q32.5 -39 100.5 -39 q68 0 98 38 q30 38 30 131 l-12 392 l140 25 l-11 -440 q0 -118 -79 -192 q-79 -74 -204 -74 Z" /><glyph glyph-name="Udieresis" unicode="ü" d="M291 -11 q-90 0 -151.5 55 q-61.5 55 -61.5 136 l-10 490 l144 25 l-16 -438 q0 -70 32.5 -109 q32.5 -39 100.5 -39 q68 0 98 38 q30 38 30 131 l-12 392 l140 25 l-11 -440 q0 -118 -79 -192 q-79 -74 -204 -74 ZM179 841 q0 28 21 50 q21 22 49 22 q28 0 43 -15.5 q15 -15.5 15 -46 q0 -30.5 -21 -52.5 q-21 -22 -48.5 -22 q-27.5 0 -43 18 q-15.5 18 -15.5 46 ZM341 841 q0 28 21 50 q21 22 50 22 q57 0 57 -58 q0 -34 -20.5 -56 q-20.5 -22 -48 -22 q-27.5 0 -43.5 18 q-16 18 -16 46 Z" /><glyph glyph-name="Yacute" unicode="ý" d="M283 395 l12 0 l74 136 l75 165 l122 -18 l-92 -167 l-130 -254 l11 -257 l-140 0 l10 240 l-126 256 l-96 175 l141 25 l65 -152 l74 -149 ZM398 910 l11 -102 q-131 -30 -235 -48 l-5 72 q86 25 229 78 Z" /><glyph glyph-name="Thorn" unicode="þ" d="M292 568 q96 0 153 -54.5 q57 -54.5 57 -149.5 q0 -95 -72 -162.5 q-72 -67.5 -176 -67.5 l-51 0 l6 -134 l-134 0 l12 243 l-12 447 l136 0 l-4 -122 l85 0 ZM256 467 l-53 0 l-6 -207 l1 -29 l70 0 q50 0 77.5 33 q27.5 33 27.5 94 q0 109 -117 109 Z" /><glyph glyph-name="germandbls" unicode="ß" d="M80 560 q0 90 67.5 152 q67.5 62 160 62 q92.5 0 145.5 -43.5 q53 -43.5 53 -118.5 q0 -37 -18 -70 q-18 -33 -40 -53 q-58 -53 -58 -93 q0 -21 22.5 -38.5 q22.5 -17.5 54 -33 q31.5 -15.5 63.5 -34.5 q32 -19 54.5 -51 q22.5 -32 22.5 -74 q0 -70 -57.5 -123 q-57.5 -53 -132.5 -53 q-48 0 -89.5 21 q-41.5 21 -59.5 42 l-18 21 l79 92 q6 -8 17 -20 q11 -12 43.5 -32 q32.5 -20 62.5 -20 q52 0 52 46 q0 18 -22.5 33.5 q-22.5 15.5 -54 31 q-31.5 15.5 -63.5 35.5 q-32 20 -54.5 54 q-22.5 34 -22.5 75 q0 41 18 74 q18 33 40 53 q58 53 58 89 q0 36 -31 56 q-31 20 -79.5 20 q-48.5 0 -70 -18.5 q-21.5 -18.5 -21.5 -62.5 l-2 -319 l11 -235 l-135 -25 l12 243 l-4 159 l-66 0 l11 82 l53 0 l-1 76 Z" /><glyph glyph-name="agrave" unicode="à" d="M158 0 q-59 0 -96.5 37.5 q-37.5 37.5 -37.5 101 q0 63.5 58 110 q58 46.5 141 46.5 l68 0 l0 17 q0 49 -20 67 q-20 18 -75 18 q-23 0 -54.5 -9.5 q-31.5 -9.5 -70.5 -29.5 l-29 79 q43 30 104.5 54 q61.5 24 101.5 24 q157 0 157 -152 l0 -196 q0 -56 35 -125 l-106 -45 q-25 48 -37 86 q-55 -83 -139 -83 ZM119 623 l11 102 q128 -48 229 -78 l-5 -72 l-235 48 ZM200 102 q40 0 91 41 l0 67 q-53 12 -86 12 q-63 0 -63 -56 q0 -29 16 -46.5 q16 -17.5 42 -17.5 Z" /><glyph glyph-name="aacute" unicode="á" d="M158 0 q-59 0 -96.5 37.5 q-37.5 37.5 -37.5 101 q0 63.5 58 110 q58 46.5 141 46.5 l68 0 l0 17 q0 49 -20 67 q-20 18 -75 18 q-23 0 -54.5 -9.5 q-31.5 -9.5 -70.5 -29.5 l-29 79 q43 30 104.5 54 q61.5 24 101.5 24 q157 0 157 -152 l0 -196 q0 -56 35 -125 l-106 -45 q-25 48 -37 86 q-55 -83 -139 -83 ZM348 725 l11 -102 q-131 -30 -235 -48 l-5 72 q85 25 229 78 ZM200 102 q40 0 91 41 l0 67 q-53 12 -86 12 q-63 0 -63 -56 q0 -29 16 -46.5 q16 -17.5 42 -17.5 Z" /><glyph glyph-name="acircumflex" unicode="â" d="M158 0 q-59 0 -96.5 37.5 q-37.5 37.5 -37.5 101 q0 63.5 58 110 q58 46.5 141 46.5 l68 0 l0 17 q0 49 -20 67 q-20 18 -75 18 q-23 0 -54.5 -9.5 q-31.5 -9.5 -70.5 -29.5 l-29 79 q43 30 104.5 54 q61.5 24 101.5 24 q157 0 157 -152 l0 -196 q0 -56 35 -125 l-106 -45 q-25 48 -37 86 q-55 -83 -139 -83 ZM237 566 l-144 85 l15 62 l129 -47 l131 47 l15 -62 l-146 -85 ZM200 102 q40 0 91 41 l0 67 q-53 12 -86 12 q-63 0 -63 -56 q0 -29 16 -46.5 q16 -17.5 42 -17.5 Z" /><glyph glyph-name="atilde" unicode="ã" d="M158 0 q-59 0 -96.5 37.5 q-37.5 37.5 -37.5 101 q0 63.5 58 110 q58 46.5 141 46.5 l68 0 l0 17 q0 49 -20 67 q-20 18 -75 18 q-23 0 -54.5 -9.5 q-31.5 -9.5 -70.5 -29.5 l-29 79 q43 30 104.5 54 q61.5 24 101.5 24 q157 0 157 -152 l0 -196 q0 -56 35 -125 l-106 -45 q-25 48 -37 86 q-55 -83 -139 -83 ZM375 703 l28 -43 q-28 -34 -58.5 -60 q-30.5 -26 -46.5 -26 q-15 2 -66.5 21 q-51.5 19 -66.5 21 l-66 -42 l-28 43 q28 34 58.5 60 q30.5 26 46.5 26 q15 -2 66.5 -21 q51.5 -19 66.5 -21 l66 42 ZM200 102 q40 0 91 41 l0 67 q-53 12 -86 12 q-63 0 -63 -56 q0 -29 16 -46.5 q16 -17.5 42 -17.5 Z" /><glyph glyph-name="adieresis" unicode="ä" d="M158 0 q-59 0 -96.5 37.5 q-37.5 37.5 -37.5 101 q0 63.5 58 110 q58 46.5 141 46.5 l68 0 l0 17 q0 49 -20 67 q-20 18 -75 18 q-23 0 -54.5 -9.5 q-31.5 -9.5 -70.5 -29.5 l-29 79 q43 30 104.5 54 q61.5 24 101.5 24 q157 0 157 -152 l0 -196 q0 -56 35 -125 l-106 -45 q-25 48 -37 86 q-55 -83 -139 -83 ZM200 102 q40 0 91 41 l0 67 q-53 12 -86 12 q-63 0 -63 -56 q0 -29 16 -46.5 q16 -17.5 42 -17.5 ZM254 656 q0 28 21 50 q21 22 49 22 q58 0 58 -58 q0 -34 -20.5 -56 q-20.5 -22 -48 -22 q-27.5 0 -43.5 18 q-16 18 -16 46 ZM92 656 q0 28 21 50 q21 22 49 22 q28 0 43 -15.5 q15 -15.5 15 -46 q0 -30.5 -21 -52.5 q-21 -22 -48.5 -22 q-27.5 0 -43 18 q-15.5 18 -15.5 46 Z" /><glyph glyph-name="aring" unicode="å" d="M158 0 q-59 0 -96.5 37.5 q-37.5 37.5 -37.5 101 q0 63.5 58 110 q58 46.5 141 46.5 l68 0 l0 17 q0 49 -20 67 q-20 18 -75 18 q-23 0 -54.5 -9.5 q-31.5 -9.5 -70.5 -29.5 l-29 79 q43 30 104.5 54 q61.5 24 101.5 24 q157 0 157 -152 l0 -196 q0 -56 35 -125 l-106 -45 q-25 48 -37 86 q-55 -83 -139 -83 ZM125 657.5 q0 48.5 33 82.5 q33 34 82 34 q49 0 79 -28 q30 -28 30 -79 q0 -51 -33 -86 q-33 -35 -81 -35 q-48 0 -79 31.5 q-31 31.5 -31 80 ZM200 102 q40 0 91 41 l0 67 q-53 12 -86 12 q-63 0 -63 -56 q0 -29 16 -46.5 q16 -17.5 42 -17.5 ZM290 663.5 q0 25.5 -14 40 q-14 14.5 -37.5 14.5 q-23.5 0 -39 -16.5 q-15.5 -16.5 -15.5 -41.5 q0 -25 14.5 -41.5 q14.5 -16.5 37 -16.5 q22.5 0 38.5 18 q16 18 16 43.5 Z" /><glyph glyph-name="ae" unicode="æ" d="M491 102 q29 0 61 15 q32 15 50 30 l18 15 l46 -56 q-10 -17 -31 -39 q-21 -22 -42.5 -37.5 q-21.5 -15.5 -57 -28 q-35.5 -12.5 -73.5 -12.5 q-99 0 -150 88 q-58 -88 -144 -88 q-64 0 -104 37.5 q-40 37.5 -40 101 q0 63.5 48.5 104.5 q48.5 41 135.5 47 l73 6 l0 27 q0 49 -18 67 q-18 18 -67 18 q-23 0 -54.5 -9.5 q-31.5 -9.5 -70.5 -29.5 l-29 79 q13 9 34 22 q21 13 75 34.5 q54 21.5 94 21.5 q96 0 123 -71 q66 71 143.5 71 q77.5 0 118 -41 q40.5 -41 40.5 -115 q0 -36 -15 -98 l-20 -21 l-251 -18 q15 -120 107 -120 ZM491 412 q-41 0 -70.5 -33 q-29.5 -33 -36.5 -85 l168 15 q3 21 3 36 q0 67 -64 67 ZM281 209 l0 6 l-75 -5 q-36 -2 -50 -14 q-14 -12 -14 -41 q0 -29 18.5 -46.5 q18.5 -17.5 52.5 -17.5 q34 0 78 38 q-10 34 -10 80 Z" /><glyph glyph-name="ccedilla" unicode="ç" d="M222 -125 q0 31 -69 40 l15 76 q-64 11 -103 70.5 q-39 59.5 -39 147.5 q0 122 71 214 q71 92 166 92 q29 0 58 -8.5 q29 -8.5 59 -26.5 l-70 -123 q-36 28 -80 28 q-44 0 -68 -31.5 q-24 -31.5 -24 -96.5 q0 -65 24.5 -104.5 q24.5 -39.5 71.5 -39.5 q24 0 47 15 q23 15 35 30 l11 16 l50 -52 q-33 -66 -94 -106 q-25 -17 -52 -23 l-6 -33 q40 -10 61.5 -29.5 q21.5 -19.5 21.5 -45.5 q0 -37 -41 -67 q-41 -30 -103 -38 l-32 44 q90 16 90 51 Z" /><glyph glyph-name="egrave" unicode="è" d="M238 102 q29 0 61 15 q32 15 50 30 l18 15 l46 -56 q-10 -17 -31 -39 q-21 -22 -42.5 -37.5 q-21.5 -15.5 -57 -28 q-35.5 -12.5 -73.5 -12.5 q-81 0 -132 61.5 q-51 61.5 -51 158.5 q0 122 71 214 q71 92 166 92 q73 0 113.5 -41 q40.5 -41 40.5 -115 q0 -44 -15 -100 l-20 -21 l-250 -23 q17 -113 106 -113 ZM128 623 l11 102 q128 -48 229 -78 l-5 -72 l-235 48 ZM238 412 q-44 0 -74 -35.5 q-30 -35.5 -35 -90.5 l170 21 q3 23 3 38 q0 67 -64 67 Z" /><glyph glyph-name="eacute" unicode="é" d="M238 102 q29 0 61 15 q32 15 50 30 l18 15 l46 -56 q-10 -17 -31 -39 q-21 -22 -42.5 -37.5 q-21.5 -15.5 -57 -28 q-35.5 -12.5 -73.5 -12.5 q-81 0 -132 61.5 q-51 61.5 -51 158.5 q0 122 71 214 q71 92 166 92 q73 0 113.5 -41 q40.5 -41 40.5 -115 q0 -44 -15 -100 l-20 -21 l-250 -23 q17 -113 106 -113 ZM357 725 l11 -102 q-131 -30 -235 -48 l-5 72 q86 25 229 78 ZM238 412 q-44 0 -74 -35.5 q-30 -35.5 -35 -90.5 l170 21 q3 23 3 38 q0 67 -64 67 Z" /><glyph glyph-name="ecircumflex" unicode="ê" d="M238 102 q29 0 61 15 q32 15 50 30 l18 15 l46 -56 q-10 -17 -31 -39 q-21 -22 -42.5 -37.5 q-21.5 -15.5 -57 -28 q-35.5 -12.5 -73.5 -12.5 q-81 0 -132 61.5 q-51 61.5 -51 158.5 q0 122 71 214 q71 92 166 92 q73 0 113.5 -41 q40.5 -41 40.5 -115 q0 -44 -15 -100 l-20 -21 l-250 -23 q17 -113 106 -113 ZM246 566 l-144 85 l15 62 l129 -47 l131 47 l15 -62 l-146 -85 ZM238 412 q-44 0 -74 -35.5 q-30 -35.5 -35 -90.5 l170 21 q3 23 3 38 q0 67 -64 67 Z" /><glyph glyph-name="edieresis" unicode="ë" d="M238 102 q29 0 61 15 q32 15 50 30 l18 15 l46 -56 q-10 -17 -31 -39 q-21 -22 -42.5 -37.5 q-21.5 -15.5 -57 -28 q-35.5 -12.5 -73.5 -12.5 q-81 0 -132 61.5 q-51 61.5 -51 158.5 q0 122 71 214 q71 92 166 92 q73 0 113.5 -41 q40.5 -41 40.5 -115 q0 -44 -15 -100 l-20 -21 l-250 -23 q17 -113 106 -113 ZM238 412 q-44 0 -74 -35.5 q-30 -35.5 -35 -90.5 l170 21 q3 23 3 38 q0 67 -64 67 ZM263 656 q0 28 21 50 q21 22 50 22 q57 0 57 -58 q0 -34 -20.5 -56 q-20.5 -22 -48 -22 q-27.5 0 -43.5 18 q-16 18 -16 46 ZM101 656 q0 28 21 50 q21 22 49 22 q28 0 43 -15.5 q15 -15.5 15 -46 q0 -30.5 -21 -52.5 q-21 -22 -48.5 -22 q-27.5 0 -43 18 q-15.5 18 -15.5 46 Z" /><glyph glyph-name="igrave" unicode="ì" d="M192 509 l-12 -249 l11 -235 l-134 -25 l12 243 l-11 241 l134 25 ZM5 623 l11 102 q128 -48 229 -78 l-5 -72 l-235 48 Z" /><glyph glyph-name="iacute" unicode="í" d="M192 509 l-12 -249 l11 -235 l-134 -25 l12 243 l-11 241 l134 25 ZM234 725 l11 -102 q-131 -30 -235 -48 l-5 72 q85 25 229 78 Z" /><glyph glyph-name="icircumflex" unicode="î" d="M123 566 l-144 85 l15 62 l129 -47 l131 47 l15 -62 l-146 -85 ZM192 509 l-12 -249 l11 -235 l-134 -25 l12 243 l-11 241 l134 25 Z" /><glyph glyph-name="idieresis" unicode="ï" d="M192 509 l-12 -249 l11 -235 l-134 -25 l12 243 l-11 241 l134 25 ZM-22 656 q0 28 21 50 q21 22 49 22 q28 0 43 -15.5 q15 -15.5 15 -46 q0 -30.5 -21 -52.5 q-21 -22 -48.5 -22 q-27.5 0 -43 18 q-15.5 18 -15.5 46 ZM140 656 q0 28 21 50 q21 22 49 22 q58 0 58 -58 q0 -34 -20.5 -56 q-20.5 -22 -48 -22 q-27.5 0 -43.5 18 q-16 18 -16 46 Z" /><glyph glyph-name="eth" unicode="ð" d="M485 261 q0 -116 -70 -194 q-70 -78 -176 -78 q-87 0 -149 65 q-62 65 -62 157 q0 115 58 185.5 q58 70.5 150 70.5 q43 0 80 -22 q-38 72 -106 142 l-143 -75 l-9 45 l119 62 q-59 54 -122 102 l128 59 q39 -39 99 -105 l135 71 l11 -46 l-116 -60 q91 -109 132 -199.5 q41 -90.5 41 -179.5 ZM260.5 94 q51.5 0 80 33 q28.5 33 28.5 96.5 q0 63.5 -15 123.5 q-50 24 -97 24 q-108 0 -108 -139 q0 -62 30 -100 q30 -38 81.5 -38 Z" /><glyph glyph-name="ntilde" unicode="ñ" d="M348 253 q0 69 -12 92 q-12 23 -56 23 q-44 0 -100 -35 l0 -73 l11 -235 l-134 -25 l12 243 q-4 134 -22 240 l121 26 q7 -58 10 -113 q15 20 34 39.5 q19 19.5 60 44 q41 24.5 86.5 24.5 q45.5 0 76.5 -35.5 q31 -35.5 31 -96.5 l-6 -112 l11 -240 l-135 -25 l12 258 ZM414 703 l28 -43 q-28 -34 -58.5 -60 q-30.5 -26 -46.5 -26 q-15 2 -66.5 21 q-51.5 19 -66.5 21 l-66 -42 l-28 43 q28 34 58.5 60 q30.5 26 46.5 26 q15 -2 66.5 -21 q51.5 -19 66.5 -21 l66 42 Z" /><glyph glyph-name="ograve" unicode="ò" d="M28 209 q0 128 69 217 q69 89 161.5 89 q92.5 0 144 -60 q51.5 -60 51.5 -159 q0 -132 -66.5 -219.5 q-66.5 -87.5 -167.5 -87.5 q-83 0 -137.5 62.5 q-54.5 62.5 -54.5 157.5 ZM342 244 q0 145 -99 145 q-103 0 -103 -136 q0 -71 29 -111 q29 -40 76.5 -40 q47.5 0 72 36.5 q24.5 36.5 24.5 105.5 ZM126 623 l11 102 q128 -48 229 -78 l-5 -72 l-235 48 Z" /><glyph glyph-name="oacute" unicode="ó" d="M28 209 q0 128 69 217 q69 89 161.5 89 q92.5 0 144 -60 q51.5 -60 51.5 -159 q0 -132 -66.5 -219.5 q-66.5 -87.5 -167.5 -87.5 q-83 0 -137.5 62.5 q-54.5 62.5 -54.5 157.5 ZM342 244 q0 145 -99 145 q-103 0 -103 -136 q0 -71 29 -111 q29 -40 76.5 -40 q47.5 0 72 36.5 q24.5 36.5 24.5 105.5 ZM355 725 l11 -102 q-131 -30 -235 -48 l-5 72 q86 25 229 78 Z" /><glyph glyph-name="ocircumflex" unicode="ô" d="M244 566 l-144 85 l15 62 l129 -47 l131 47 l15 -62 l-146 -85 ZM28 209 q0 128 69 217 q69 89 161.5 89 q92.5 0 144 -60 q51.5 -60 51.5 -159 q0 -132 -66.5 -219.5 q-66.5 -87.5 -167.5 -87.5 q-83 0 -137.5 62.5 q-54.5 62.5 -54.5 157.5 ZM342 244 q0 145 -99 145 q-103 0 -103 -136 q0 -71 29 -111 q29 -40 76.5 -40 q47.5 0 72 36.5 q24.5 36.5 24.5 105.5 Z" /><glyph glyph-name="otilde" unicode="õ" d="M28 209 q0 128 69 217 q69 89 161.5 89 q92.5 0 144 -60 q51.5 -60 51.5 -159 q0 -132 -66.5 -219.5 q-66.5 -87.5 -167.5 -87.5 q-83 0 -137.5 62.5 q-54.5 62.5 -54.5 157.5 ZM342 244 q0 145 -99 145 q-103 0 -103 -136 q0 -71 29 -111 q29 -40 76.5 -40 q47.5 0 72 36.5 q24.5 36.5 24.5 105.5 ZM382 703 l28 -43 q-28 -34 -58.5 -60 q-30.5 -26 -46.5 -26 q-15 2 -66.5 21 q-51.5 19 -66.5 21 l-66 -42 l-28 43 q28 34 58.5 60 q30.5 26 46.5 26 q15 -2 66.5 -21 q51.5 -19 66.5 -21 l66 42 Z" /><glyph glyph-name="odieresis" unicode="ö" d="M28 209 q0 128 69 217 q69 89 161.5 89 q92.5 0 144 -60 q51.5 -60 51.5 -159 q0 -132 -66.5 -219.5 q-66.5 -87.5 -167.5 -87.5 q-83 0 -137.5 62.5 q-54.5 62.5 -54.5 157.5 ZM342 244 q0 145 -99 145 q-103 0 -103 -136 q0 -71 29 -111 q29 -40 76.5 -40 q47.5 0 72 36.5 q24.5 36.5 24.5 105.5 ZM99 656 q0 28 21 50 q21 22 49 22 q28 0 43 -15.5 q15 -15.5 15 -46 q0 -30.5 -21 -52.5 q-21 -22 -48.5 -22 q-27.5 0 -43 18 q-15.5 18 -15.5 46 ZM261 656 q0 28 21 50 q21 22 50 22 q57 0 57 -58 q0 -34 -20.5 -56 q-20.5 -22 -48 -22 q-27.5 0 -43.5 18 q-16 18 -16 46 Z" /><glyph glyph-name="divide" unicode="÷" d="M17 215 l8 91 l383 0 l-8 -91 l-383 0 ZM139 422 q0 32 23.5 56.5 q23.5 24.5 55.5 24.5 q66 0 66 -66 q0 -38 -23.5 -63 q-23.5 -25 -55 -25 q-31.5 0 -49 20.5 q-17.5 20.5 -17.5 52.5 ZM139 90 q0 32 23.5 56.5 q23.5 24.5 55.5 24.5 q66 0 66 -66 q0 -38 -23.5 -63 q-23.5 -25 -55 -25 q-31.5 0 -49 20.5 q-17.5 20.5 -17.5 52.5 Z" /><glyph glyph-name="oslash" unicode="ø" d="M265 515 q46 0 84 -19 l64 115 l44 -18 l-69 -124 q66 -60 66 -182.5 q0 -122.5 -66.5 -210 q-66.5 -87.5 -167.5 -87.5 q-44 0 -86 21 l-60 -109 l-43 19 l65 117 q-68 65 -68 172 q0 128 69 217 q69 89 168 89 ZM254.5 102 q38.5 0 63 36.5 q24.5 36.5 24.5 105 q0 68.5 -21 104.5 l-127 -231 q22 -15 60.5 -15 ZM140 253 q0 -61 21 -98 l125 226 q-19 8 -43 8 q-103 0 -103 -136 Z" /><glyph glyph-name="ugrave" unicode="ù" d="M178 0 q-54 0 -87.5 35.5 q-33.5 35.5 -33.5 93.5 l6 115 l-11 240 l134 25 l-13 -304 q0 -43 15.5 -63 q15.5 -20 49.5 -20 q34 0 94 34 l0 60 l-11 263 l135 25 l-12 -250 l1 -82 q0 -64 33 -129 l-104 -46 q-33 65 -40 104 q-90 -101 -156 -101 ZM140 623 l11 102 q128 -48 229 -78 l-5 -72 l-235 48 Z" /><glyph glyph-name="uacute" unicode="ú" d="M178 0 q-54 0 -87.5 35.5 q-33.5 35.5 -33.5 93.5 l6 115 l-11 240 l134 25 l-13 -304 q0 -43 15.5 -63 q15.5 -20 49.5 -20 q34 0 94 34 l0 60 l-11 263 l135 25 l-12 -250 l1 -82 q0 -64 33 -129 l-104 -46 q-33 65 -40 104 q-90 -101 -156 -101 ZM369 725 l11 -102 q-131 -30 -235 -48 l-5 72 q85 25 229 78 Z" /><glyph glyph-name="ucircumflex" unicode="û" d="M178 0 q-54 0 -87.5 35.5 q-33.5 35.5 -33.5 93.5 l6 115 l-11 240 l134 25 l-13 -304 q0 -43 15.5 -63 q15.5 -20 49.5 -20 q34 0 94 34 l0 60 l-11 263 l135 25 l-12 -250 l1 -82 q0 -64 33 -129 l-104 -46 q-33 65 -40 104 q-90 -101 -156 -101 ZM258 566 l-144 85 l15 62 l129 -47 l131 47 l15 -62 l-146 -85 Z" /><glyph glyph-name="udieresis" unicode="ü" d="M178 0 q-54 0 -87.5 35.5 q-33.5 35.5 -33.5 93.5 l6 115 l-11 240 l134 25 l-13 -304 q0 -43 15.5 -63 q15.5 -20 49.5 -20 q34 0 94 34 l0 60 l-11 263 l135 25 l-12 -250 l1 -82 q0 -64 33 -129 l-104 -46 q-33 65 -40 104 q-90 -101 -156 -101 ZM275 656 q0 28 21 50 q21 22 50 22 q57 0 57 -58 q0 -34 -20.5 -56 q-20.5 -22 -48 -22 q-27.5 0 -43.5 18 q-16 18 -16 46 ZM113 656 q0 28 21 50 q21 22 49 22 q28 0 43 -15.5 q15 -15.5 15 -46 q0 -30.5 -21 -52.5 q-21 -22 -48.5 -22 q-27.5 0 -43 18 q-15.5 18 -15.5 46 Z" /><glyph glyph-name="yacute" unicode="ý" d="M72 -193 l103 231 l-74 202 l-101 243 l133 25 l64 -213 l33 -101 l13 0 l24 73 l72 242 l123 -15 l-177 -465 l-84 -249 l-129 27 ZM344 725 l11 -102 q-131 -30 -235 -48 l-5 72 q85 25 229 78 Z" /><glyph glyph-name="thorn" unicode="þ" d="M323 505 q64 0 107.5 -56 q43.5 -56 43.5 -151 q0 -133 -68.5 -215.5 q-68.5 -82.5 -170.5 -82.5 q-21 0 -47 3 l5 -191 l-137 -25 l13 456 l-12 506 l137 25 l-13 -258 l0 -109 q10 14 26 32.5 q16 18.5 50.5 42 q34.5 23.5 65.5 23.5 ZM284 375 q-53 0 -103 -29 l0 -86 l4 -143 q54 -9 82 -9 q96 0 96 133.5 q0 133.5 -79 133.5 ZM181 260 l-111 -17 l111 17 Z" /><glyph glyph-name="ydieresis" unicode="ÿ" d="M72 -193 l103 231 l-74 202 l-101 243 l133 25 l64 -213 l33 -101 l13 0 l24 73 l72 242 l123 -15 l-177 -465 l-84 -249 l-129 27 ZM88 656 q0 28 21 50 q21 22 49 22 q28 0 43 -15.5 q15 -15.5 15 -46 q0 -30.5 -21 -52.5 q-21 -22 -48.5 -22 q-27.5 0 -43 18 q-15.5 18 -15.5 46 ZM250 656 q0 28 21 50 q21 22 49 22 q58 0 58 -58 q0 -34 -20.5 -56 q-20.5 -22 -48 -22 q-27.5 0 -43.5 18 q-16 18 -16 46 Z" /><glyph glyph-name="hbar" unicode="&#x127;" d="M216 437 q19 19 59 43 q40 24 85.5 24 q45.5 0 76.5 -35.5 q31 -35.5 31 -96.5 l-6 -112 l11 -240 l-135 -25 l12 258 q0 69 -12 92 q-12 23 -56 23 q-44 0 -100 -35 l0 -73 l11 -235 l-135 -25 l12 243 l-8 331 l-70 0 l5 47 l64 0 l-3 128 l137 25 l-8 -153 l118 0 l-4 -47 l-116 0 l-3 -59 l0 -117 q15 20 34 39 Z" /><glyph glyph-name="Itilde" unicode="&#x128;" d="M222 695 l-14 -435 l12 -260 l-140 0 l12 243 l-12 427 l142 25 ZM290 888 l28 -43 q-28 -34 -58.5 -60 q-30.5 -26 -46.5 -26 q-15 2 -66.5 21 q-51.5 19 -66.5 21 l-66 -42 l-28 43 q28 34 58.5 60 q30.5 26 46.5 26 q15 -2 66.5 -21 q51.5 -19 66.5 -21 l66 42 Z" /><glyph glyph-name="itilde" unicode="&#x129;" d="M192 509 l-12 -249 l11 -235 l-134 -25 l12 243 l-11 241 l134 25 ZM261 703 l28 -43 q-28 -34 -58.5 -60 q-30.5 -26 -46.5 -26 q-15 2 -66.5 21 q-51.5 19 -66.5 21 l-66 -42 l-28 43 q28 34 58.5 60 q30.5 26 46.5 26 q15 -2 66.5 -21 q51.5 -19 66.5 -21 l66 42 Z" /><glyph glyph-name="dotlessi" unicode="&#x131;" d="M192 509 l-12 -249 l11 -235 l-134 -25 l12 243 l-11 241 l134 25 Z" /><glyph glyph-name="ij" unicode="&#x133;" d="M192 509 l-12 -249 l11 -235 l-134 -25 l12 243 l-11 241 l134 25 ZM51 655.5 q0 33.5 26 60 q26 26.5 60 26.5 q34 0 52 -18.5 q18 -18.5 18 -55.5 q0 -37 -25.5 -63.5 q-25.5 -26.5 -59 -26.5 q-33.5 0 -52.5 22 q-19 22 -19 55.5 ZM247 -220 q-41 0 -82 9 l31 114 q34 -9 63.5 -9 q29.5 0 42.5 22 q13 22 13 79 l-1 248 l-11 241 l134 25 l-12 -249 l11 -226 q0 -104 -56 -179 q-56 -75 -133 -75 ZM296 654.5 q0 34.5 26 61 q26 26.5 60.5 26.5 q34.5 0 52 -18.5 q17.5 -18.5 17.5 -55 q0 -36.5 -25 -63.5 q-25 -27 -58.5 -27 q-33.5 0 -53 21 q-19.5 21 -19.5 55.5 Z" /><glyph glyph-name="Jcircumflex" unicode="&#x134;" d="M215 751 l-144 85 l15 62 l129 -47 l131 47 l15 -62 l-146 -85 ZM82 -10 q-41 0 -82 9 l32 120 q33 -11 64 -11 q61 0 61 101 l-14 461 l142 25 l-14 -451 q0 -109 -53 -181.5 q-53 -72.5 -136 -72.5 Z" /><glyph glyph-name="jcircumflex" unicode="&#x135;" d="M3 -220 q-41 0 -82 9 l31 114 q34 -9 63.5 -9 q29.5 0 42.5 22 q13 22 13 79 l-1 248 l-11 241 l134 25 l-12 -249 l11 -226 q0 -104 -56 -179 q-56 -75 -133 -75 ZM122 566 l-144 85 l15 62 l129 -47 l131 47 l15 -62 l-146 -85 Z" /><glyph glyph-name="kcedilla" unicode="&#x137;" d="M147 -125 q0 31 -69 40 l18 92 l-38 -7 l12 243 l-12 506 l137 25 l-13 -483 l200 219 l94 -64 l-175 -164 l183 -216 l-114 -76 l-188 277 l0 -7 l11 -235 l-32 -6 l-11 -59 q40 -10 61.5 -29.5 q21.5 -19.5 21.5 -45.5 q0 -37 -41 -67 q-41 -30 -103 -38 l-32 44 q90 16 90 51 Z" /><glyph glyph-name="kgreenlandic" unicode="&#x138;" d="M192 509 l-11 -219 l201 220 l94 -64 l-175 -164 l183 -216 l-114 -76 l-190 280 l0 -10 l11 -235 l-134 -25 l12 243 l-11 241 l134 25 Z" /><glyph glyph-name="ldot" unicode="&#x140;" d="M195 774 l-13 -514 l11 -235 l-135 -25 l12 243 l-12 506 l137 25 ZM222 295 q0 32 23.5 56.5 q23.5 24.5 56.5 24.5 q65 0 65 -66 q0 -38 -23.5 -63 q-23.5 -25 -55 -25 q-31.5 0 -49 20.5 q-17.5 20.5 -17.5 52.5 Z" /><glyph glyph-name="Lslash" unicode="&#x141;" d="M242 695 l-8 -244 l115 64 l20 -44 l-137 -76 l-4 -135 l7 -162 l205 16 l-11 -114 l-329 0 l12 243 l-3 85 l-88 -49 l-18 44 l105 58 l-8 289 l142 25 Z" /><glyph glyph-name="lslash" unicode="&#x142;" d="M205 774 l-8 -304 l81 45 l20 -44 l-102 -57 l-4 -154 l11 -235 l-135 -25 l12 243 l-3 106 l-78 -43 l-18 44 l95 53 l-8 346 l137 25 Z" /><glyph glyph-name="Nacute" unicode="&#x143;" d="M609 692 l-13 -432 l11 -238 l-118 -25 l-298 482 l0 -219 l14 -260 l-125 0 l12 243 l-12 444 l120 6 l297 -489 l-10 473 l122 15 ZM456 910 l11 -102 q-131 -30 -235 -48 l-5 72 q85 25 229 78 Z" /><glyph glyph-name="nacute" unicode="&#x144;" d="M348 253 q0 69 -12 92 q-12 23 -56 23 q-44 0 -100 -35 l0 -73 l11 -235 l-134 -25 l12 243 q-4 134 -22 240 l121 26 q7 -58 10 -113 q15 20 34 39.5 q19 19.5 60 44 q41 24.5 86.5 24.5 q45.5 0 76.5 -35.5 q31 -35.5 31 -96.5 l-6 -112 l11 -240 l-135 -25 l12 258 ZM387 725 l11 -102 q-131 -30 -235 -48 l-5 72 q86 25 229 78 Z" /><glyph glyph-name="OE" unicode="&#x152;" d="M301 0 q-115 0 -193 89.5 q-78 89.5 -78 220.5 q0 160 95.5 270 q95.5 110 234.5 110 l477 0 l-11 -107 l-260 0 l-6 -177 l235 0 l-11 -106 l-228 0 l-1 -40 l7 -154 l277 0 l-11 -106 l-527 0 ZM339 573 q-81 0 -127 -55 q-46 -55 -46 -152 q0 -127 48 -196 q48 -69 136 -69 q51 0 69.5 15 q18.5 15 18.5 58 l-3 319 q0 51 -18 65.5 q-18 14.5 -78 14.5 Z" /><glyph glyph-name="oe" unicode="&#x153;" d="M569 102 q29 0 61 15 q32 15 50 30 l18 15 l46 -56 q-10 -17 -31 -39 q-21 -22 -42.5 -37.5 q-21.5 -15.5 -57 -28 q-35.5 -12.5 -73.5 -12.5 q-103 0 -153 98 q-64 -98 -167 -98 q-83 0 -137.5 62.5 q-54.5 62.5 -54.5 157.5 q0 128 69 217 q69 89 168 89 q53 0 94 -27.5 q41 -27.5 63 -76.5 q71 104 172 104 q73 0 113.5 -41 q40.5 -41 40.5 -115 q0 -36 -15 -100 l-20 -21 l-250 -22 q17 -114 106 -114 ZM243 389 q-103 0 -103 -136 q0 -71 29 -111 q29 -40 77 -40 q96 0 96 143.5 q0 143.5 -99 143.5 ZM569 412 q-43 0 -73 -35.5 q-30 -35.5 -35 -91.5 l169 22 q3 23 3 38 q0 67 -64 67 Z" /><glyph glyph-name="Racute" unicode="&#x154;" d="M259 266 l-57 0 l0 -6 l12 -260 l-134 0 l12 243 l-12 447 l217 0 q96 0 153 -52 q57 -52 57 -138 q0 -65 -33.5 -118.5 q-33.5 -53.5 -90.5 -84.5 l174 -246 l-121 -62 l-156 278 q-7 -1 -21 -1 ZM261 589 l-49 0 l-7 -226 l68 0 q50 0 77.5 33 q27.5 33 27.5 94 q0 99 -117 99 ZM395 910 l11 -102 q-131 -30 -235 -48 l-5 72 q86 25 229 78 Z" /><glyph glyph-name="Rcommaaccent" unicode="&#x156;" d="M259 266 l-57 0 l0 -6 l12 -260 l-134 0 l12 243 l-12 447 l217 0 q96 0 153 -52 q57 -52 57 -138 q0 -65 -33.5 -118.5 q-33.5 -53.5 -90.5 -84.5 l174 -246 l-121 -62 l-156 278 q-7 -1 -21 -1 ZM261 589 l-49 0 l-7 -226 l68 0 q50 0 77.5 33 q27.5 33 27.5 94 q0 99 -117 99 Z" /><glyph glyph-name="rcommaaccent" unicode="&#x157;" d="M47 483 l121 26 q9 -77 12 -146 q91 141 171 141 l-11 -156 q-58 0 -91.5 -10.5 q-33.5 -10.5 -68.5 -41.5 l0 -36 l11 -235 l-134 -25 l12 243 q-4 134 -22 240 ZM200 -127 q0 -85 -124 -180 l-41 30 q59 69 59 119 q0 31 -26 79 l98 39 q34 -43 34 -87 Z" /><glyph glyph-name="Rcaron" unicode="&#x158;" d="M259 266 l-57 0 l0 -6 l12 -260 l-134 0 l12 243 l-12 447 l217 0 q96 0 153 -52 q57 -52 57 -138 q0 -65 -33.5 -118.5 q-33.5 -53.5 -90.5 -84.5 l174 -246 l-121 -62 l-156 278 q-7 -1 -21 -1 ZM261 589 l-49 0 l-7 -226 l68 0 q50 0 77.5 33 q27.5 33 27.5 94 q0 99 -117 99 ZM284 751 l-144 85 l15 62 l129 -47 l131 47 l15 -62 l-146 -85 Z" /><glyph glyph-name="rcaron" unicode="&#x159;" d="M47 483 l121 26 q9 -77 12 -146 q91 141 171 141 l-11 -156 q-58 0 -91.5 -10.5 q-33.5 -10.5 -68.5 -41.5 l0 -36 l11 -235 l-134 -25 l12 243 q-4 134 -22 240 ZM117 566 l-115 85 l12 62 l103 -47 l105 47 l12 -62 l-117 -85 Z" /><glyph glyph-name="circumflex" unicode="&#x2c6;" d="M121 566 l-144 85 l15 62 l129 -47 l131 47 l15 -62 l-146 -85 Z" /><glyph glyph-name="tilde" unicode="&#x2dc;" d="M260 703 l28 -43 q-28 -34 -58.5 -60 q-30.5 -26 -46.5 -26 q-15 2 -66.5 21 q-51.5 19 -66.5 21 l-66 -42 l-28 43 q28 34 58.5 60 q30.5 26 46.5 26 q15 -2 66.5 -21 q51.5 -19 66.5 -21 l66 42 Z" /><glyph glyph-name="endash" unicode="&#x2013;" d="M-8 215 l8 91 l433 0 l-8 -91 l-433 0 Z" /><glyph glyph-name="emdash" unicode="&#x2014;" d="M-8 215 l8 91 l559 0 l-8 -91 l-559 0 Z" /><glyph glyph-name="quoteleft" unicode="&#x2018;" d="M18 464 q0 85 124 180 l41 -30 q-59 -69 -59 -119 q0 -31 26 -79 l-98 -39 q-34 43 -34 87 Z" /><glyph glyph-name="quoteright" unicode="&#x2019;" d="M175 557 q0 -85 -124 -180 l-41 30 q59 69 59 119 q0 31 -26 79 l98 39 q34 -43 34 -87 Z" /><glyph glyph-name="quotesinglbase" unicode="&#x201a;" d="M165 67 q0 -85 -124 -180 l-41 30 q59 69 59 119 q0 31 -26 79 l98 39 q34 -43 34 -87 Z" /><glyph glyph-name="quotedblleft" unicode="&#x201c;" d="M18 464 q0 85 124 180 l41 -30 q-59 -69 -59 -119 q0 -31 26 -79 l-98 -39 q-34 43 -34 87 ZM188 464 q0 85 124 180 l41 -30 q-59 -69 -59 -119 q0 -31 26 -79 l-98 -39 q-34 43 -34 87 Z" /><glyph glyph-name="quotedblright" unicode="&#x201d;" d="M175 557 q0 -85 -124 -180 l-41 30 q59 69 59 119 q0 31 -26 79 l98 39 q34 -43 34 -87 ZM345 557 q0 -85 -124 -180 l-41 30 q59 69 59 119 q0 31 -26 79 l98 39 q34 -43 34 -87 Z" /><glyph glyph-name="quotedblbase" unicode="&#x201e;" d="M165 67 q0 -85 -124 -180 l-41 30 q59 69 59 119 q0 31 -26 79 l98 39 q34 -43 34 -87 ZM335 67 q0 -85 -124 -180 l-41 30 q59 69 59 119 q0 31 -26 79 l98 39 q34 -43 34 -87 Z" /><glyph glyph-name="bullet" unicode="&#x2022;" d="M40 255 q0 48 35.5 85 q35.5 37 83.5 37 q48 0 73 -26 q25 -26 25 -78 q0 -52 -35 -89.5 q-35 -37.5 -82.5 -37.5 q-47.5 0 -73.5 30.5 q-26 30.5 -26 78.5 Z" /><glyph glyph-name="guilsinglleft" unicode="&#x2039;" d="M127 265 l105 -136 l-58 -48 l-167 177 l167 187 l58 -48 l-105 -132 Z" /><glyph glyph-name="guilsinglright" unicode="&#x203a;" d="M120 261 l-105 136 l58 48 l167 -177 l-167 -187 l-58 48 l105 132 Z" /><glyph glyph-name="Euro" unicode="&#x20ac;" d="M231 243 q14 -66 49 -100.5 q35 -34.5 83 -34.5 q48 0 83 27.5 q35 27.5 50 73.5 l80 -46 q-31 -82 -94 -128 q-63 -46 -149.5 -46 q-86.5 0 -154.5 72 q-68 72 -81 182 l-84 0 l5 47 l77 0 q0 42 7 77 l-89 0 l5 47 l95 0 q31 106 105.5 171 q74.5 65 169.5 65 q48 0 89.5 -10 q41.5 -10 58.5 -20 l18 -10 l-65 -132 q-24 20 -60.5 35.5 q-36.5 15.5 -77 15.5 q-40.5 0 -74 -30 q-33.5 -30 -47.5 -85 l226 0 l-4 -47 l-229 0 q-1 -9 -1 -35.5 q0 -26.5 2 -41.5 l232 0 l-4 -47 l-221 0 Z" /><glyph glyph-name="fi" unicode="&#xfb01;" d="M269 774 q42 0 87 -9 l-31 -114 q-37 9 -67 9 q-30 0 -43.5 -18 q-13.5 -18 -13.5 -63 l-1 -94 l166 0 l129 24 l-12 -249 l11 -235 l-134 -25 l12 243 l-8 160 l-164 0 l-1 -143 l11 -235 l-135 -25 l12 243 l-4 160 l-66 0 l11 82 l53 0 l-1 75 q0 89 55 151.5 q55 62.5 134 62.5 ZM354 655.5 q0 33.5 26 60 q26 26.5 60 26.5 q34 0 52 -18.5 q18 -18.5 18 -55.5 q0 -37 -25.5 -63.5 q-25.5 -26.5 -59 -26.5 q-33.5 0 -52.5 22 q-19 22 -19 55.5 Z" /><glyph glyph-name="fl" unicode="&#xfb02;" d="M367 646 q-77 14 -108 14 q-31 0 -44.5 -17.5 q-13.5 -17.5 -13.5 -63.5 l-1 -95 l108 0 l-11 -82 l-97 0 l-1 -142 l11 -235 l-135 -25 l12 243 l-4 159 l-66 0 l11 82 l53 0 l-1 76 q0 90 55 152 q55 62 138 62 q50 0 137 -17 l92 17 l-13 -514 l11 -235 l-135 -25 l12 243 l-10 403 Z" /></font>
</defs>
</svg>
